<svg width="750" height="1050" viewBox="0 0 750 1050" fill="none" xmlns="http://www.w3.org/2000/svg">
<g clip-path="url(#clip0_63_6751)">
<path d="M0 50C0 22.3858 22.3858 0 50 0H700C727.614 0 750 22.3858 750 50V1000C750 1027.61 727.614 1050 700 1050H50C22.3858 1050 0 1027.61 0 1000V50Z" fill="#FFFCF5"/>
<path d="M128.925 220.96C151.094 220.96 168.796 208.386 168.796 183.736V103H149.77V183.736C149.77 195.647 142.325 202.431 129.09 202.431C118.502 202.431 111.884 198.46 108.079 190.188L91.7002 199.783C98.4833 213.846 112.05 220.96 128.925 220.96Z" fill="#FF3B30"/>
<path d="M323.516 146.981C323.516 130.376 310.057 116.916 293.457 116.916C281.649 116.916 271.439 123.719 266.523 133.617C261.597 123.717 251.396 116.916 239.585 116.916C222.987 116.916 209.524 130.376 209.524 146.981C209.524 186.648 265.893 208.359 265.893 208.359C265.895 208.358 323.516 186.372 323.516 146.981Z" fill="#FF3B30"/>
<g clip-path="url(#clip1_63_6751)">
<path d="M92.999 366.541L215.985 905.93H1360.54L1471.35 366.541C1017.17 293.484 547.218 293.484 93.0129 366.541H92.999Z" fill="#FF3B30"/>
<path d="M214.759 1164.11H1341.09L1349.62 966.846H215.987L214.759 1164.11Z" fill="#FF3B30"/>
</g>
</g>
<defs>
<clipPath id="clip0_63_6751">
<rect width="750" height="1050" fill="white"/>
</clipPath>
<clipPath id="clip1_63_6751">
<rect width="1379" height="1379" fill="white" transform="translate(93 50)"/>
</clipPath>
</defs>
</svg>
