<svg width="750" height="1050" viewBox="0 0 750 1050" fill="none" xmlns="http://www.w3.org/2000/svg">
<g clip-path="url(#clip0_63_7202)">
<path d="M0 50C0 22.3858 22.3858 0 50 0H700C727.614 0 750 22.3858 750 50V1000C750 1027.61 727.614 1050 700 1050H50C22.3858 1050 0 1027.61 0 1000V50Z" fill="#FFFCF5"/>
<path d="M754.341 536.834C750.935 536.834 747.515 536.92 744.167 537.078C752.2 514.174 756.625 489.575 756.625 463.97C756.625 342.022 657.753 243.105 535.776 243.105C413.784 243.105 314.912 342.022 314.912 463.97C314.912 489.575 319.323 514.173 327.355 537.078C323.993 536.92 320.602 536.834 317.196 536.834C195.205 536.834 96.347 635.707 96.347 757.639C96.347 879.631 195.205 978.489 317.196 978.489C389.128 978.489 452.912 944.032 493.217 890.795C469.12 984.179 437.077 1081.46 402.393 1112.84H669.108C634.465 1081.47 602.466 984.319 578.325 890.968C618.659 944.088 682.468 978.474 754.33 978.474C876.252 978.474 975.15 879.616 975.15 757.625C975.164 635.703 876.263 536.834 754.345 536.834H754.341ZM545.935 684.53C545.605 685.565 544.024 684.573 544.024 684.573C544.656 684.573 545.303 684.573 545.935 684.53Z" fill="#1C1C1E"/>
<path d="M110.368 104.146L80 114.873L84.6212 131.047L107.892 124.446V219.674H126.872V104.146H110.368Z" fill="#1C1C1E"/>
<path d="M191.249 221.82C220.297 221.82 236.636 197.559 236.636 161.91C236.636 126.261 220.297 102 191.249 102C162.202 102 145.863 126.261 145.863 161.91C145.863 197.559 162.202 221.82 191.249 221.82ZM191.249 203.335C174.25 203.335 164.843 188.482 164.843 161.91C164.843 135.338 174.25 120.485 191.249 120.485C208.414 120.485 217.656 135.338 217.656 161.91C217.656 188.482 208.414 203.335 191.249 203.335Z" fill="#1C1C1E"/>
<path d="M361.026 143.905C360.606 143.905 360.185 143.915 359.773 143.935C360.762 141.114 361.307 138.084 361.307 134.93C361.307 119.911 349.129 107.728 334.106 107.728C319.081 107.728 306.903 119.911 306.903 134.93C306.903 138.084 307.447 141.114 308.436 143.935C308.022 143.915 307.604 143.905 307.185 143.905C292.16 143.905 279.984 156.082 279.984 171.1C279.984 186.125 292.16 198.301 307.185 198.301C316.044 198.301 323.9 194.057 328.864 187.5C325.896 199.002 321.95 210.983 317.678 214.848H350.528C346.261 210.985 342.32 199.019 339.347 187.522C344.314 194.064 352.173 198.299 361.024 198.299C376.041 198.299 388.222 186.123 388.222 171.098C388.223 156.082 376.042 143.905 361.026 143.905H361.026ZM335.357 162.096C335.317 162.223 335.122 162.101 335.122 162.101C335.2 162.101 335.28 162.101 335.357 162.096Z" fill="#1C1C1E"/>
</g>
<defs>
<clipPath id="clip0_63_7202">
<rect width="750" height="1050" fill="white"/>
</clipPath>
</defs>
</svg>
