<svg width="750" height="1050" viewBox="0 0 750 1050" fill="none" xmlns="http://www.w3.org/2000/svg">
<g clip-path="url(#clip0_63_7194)">
<path d="M0 50C0 22.3858 22.3858 0 50 0H700C727.614 0 750 22.3858 750 50V1000C750 1027.61 727.614 1050 700 1050H50C22.3858 1050 0 1027.61 0 1000V50Z" fill="#FFFCF5"/>
<path d="M754.341 536.834C750.935 536.834 747.515 536.92 744.167 537.078C752.2 514.174 756.625 489.575 756.625 463.97C756.625 342.022 657.753 243.105 535.776 243.105C413.784 243.105 314.912 342.022 314.912 463.97C314.912 489.575 319.323 514.173 327.355 537.078C323.993 536.92 320.602 536.834 317.197 536.834C195.205 536.834 96.3472 635.707 96.3472 757.639C96.3472 879.631 195.205 978.489 317.197 978.489C389.128 978.489 452.912 944.032 493.217 890.795C469.12 984.179 437.077 1081.46 402.393 1112.84H669.108C634.465 1081.47 602.466 984.319 578.325 890.968C618.659 944.088 682.468 978.474 754.33 978.474C876.252 978.474 975.15 879.616 975.15 757.625C975.165 635.703 876.263 536.834 754.345 536.834H754.341ZM545.935 684.53C545.605 685.565 544.024 684.573 544.024 684.573C544.657 684.573 545.303 684.573 545.935 684.53Z" fill="#1C1C1E"/>
<path d="M92.181 220.96H168.45V202.596H120.472L146.611 176.456C157.696 165.206 166.299 153.129 166.299 138.735C166.299 115.739 148.266 103 129.24 103C113.854 103 99.295 110.61 91.8501 126.493L107.898 135.923C112.365 126.658 119.81 121.529 129.405 121.529C139.332 121.529 147.273 127.816 147.273 139.397C147.273 148.166 140.821 156.603 132.549 164.875L92.181 206.07V220.96Z" fill="#1C1C1E"/>
<path d="M293.141 145.006C292.72 145.006 292.298 145.017 291.885 145.036C292.877 142.208 293.423 139.171 293.423 136.01C293.423 120.954 281.216 108.741 266.156 108.741C251.094 108.741 238.887 120.954 238.887 136.01C238.887 139.171 239.432 142.208 240.424 145.036C240.008 145.017 239.59 145.006 239.169 145.006C224.108 145.006 211.902 157.213 211.902 172.268C211.902 187.329 224.108 199.535 239.169 199.535C248.05 199.535 255.925 195.28 260.901 188.708C257.926 200.237 253.97 212.247 249.688 216.122H282.618C278.341 212.249 274.39 200.254 271.409 188.729C276.389 195.287 284.267 199.533 293.14 199.533C308.193 199.533 320.403 187.327 320.403 172.266C320.405 157.213 308.194 145.006 293.141 145.006H293.141ZM267.41 163.241C267.37 163.369 267.174 163.247 267.174 163.247C267.252 163.247 267.332 163.247 267.41 163.241Z" fill="#1C1C1E"/>
</g>
<defs>
<clipPath id="clip0_63_7194">
<rect width="750" height="1050" fill="white"/>
</clipPath>
</defs>
</svg>
