<svg width="750" height="1050" viewBox="0 0 750 1050" fill="none" xmlns="http://www.w3.org/2000/svg">
<g clip-path="url(#clip0_157_5649)">
<path fill-rule="evenodd" clip-rule="evenodd" d="M700 16H50C31.2223 16 16 31.2223 16 50V1000C16 1018.78 31.2223 1034 50 1034H700C718.778 1034 734 1018.78 734 1000V50C734 31.2223 718.778 16 700 16ZM50 0C22.3858 0 0 22.3858 0 50V1000C0 1027.61 22.3858 1050 50 1050H700C727.614 1050 750 1027.61 750 1000V50C750 22.3858 727.614 0 700 0H50Z" fill="black"/>
<path d="M376.973 369C376.973 369 208 433.489 208 548.987C208 597.684 247.473 637.153 296.167 637.153C319.781 637.153 341.219 627.836 357.036 612.721C348.791 642.648 338.427 671.581 327.333 681.633H422.927C411.838 671.581 401.473 642.649 393.224 612.721C409.036 627.841 430.475 637.153 454.109 637.153C502.792 637.153 542.26 597.684 542.26 548.987C542.276 432.669 376.98 369 376.98 369H376.973Z" fill="#1C1C1E"/>
</g>
<defs>
<clipPath id="clip0_157_5649">
<rect width="750" height="1050" fill="white"/>
</clipPath>
</defs>
</svg>
