<svg width="750" height="1050" viewBox="0 0 750 1050" fill="none" xmlns="http://www.w3.org/2000/svg">
<g clip-path="url(#clip0_63_6976)">
<path d="M0 50C0 22.3858 22.3858 0 50 0H700C727.614 0 750 22.3858 750 50V1000C750 1027.61 727.614 1050 700 1050H50C22.3858 1050 0 1027.61 0 1000V50Z" fill="#FFFCF5"/>
<path d="M540.444 248.623C540.444 248.623 74.2765 426.538 74.2765 745.175C74.2765 879.522 183.176 988.411 317.513 988.411C382.661 988.411 441.803 962.705 485.441 921.007C462.695 1003.57 434.101 1083.39 403.496 1111.12H667.221C636.63 1083.39 608.035 1003.57 585.277 921.007C628.899 962.721 688.045 988.411 753.249 988.411C887.556 988.411 996.441 879.522 996.441 745.175C996.484 424.276 540.462 248.623 540.462 248.623H540.444Z" fill="#1C1C1E"/>
<path d="M110.368 104.146L80 114.873L84.6212 131.047L107.892 124.446V219.674H126.872V104.146H110.368Z" fill="#1C1C1E"/>
<path d="M191.249 221.82C220.297 221.82 236.636 197.559 236.636 161.91C236.636 126.261 220.297 102 191.249 102C162.202 102 145.863 126.261 145.863 161.91C145.863 197.559 162.202 221.82 191.249 221.82ZM191.249 203.335C174.25 203.335 164.843 188.482 164.843 161.91C164.843 135.338 174.25 120.485 191.249 120.485C208.414 120.485 217.656 135.338 217.656 161.91C217.656 188.482 208.414 203.335 191.249 203.335Z" fill="#1C1C1E"/>
<path d="M334.681 108.407C334.681 108.407 277.266 130.32 277.266 169.565C277.266 186.112 290.678 199.523 307.224 199.523C315.248 199.523 322.532 196.357 327.907 191.222C325.105 201.39 321.583 211.222 317.814 214.637H350.296C346.528 211.222 343.006 201.391 340.203 191.222C345.576 196.359 352.86 199.523 360.891 199.523C377.433 199.523 390.844 186.112 390.844 169.565C390.849 130.041 334.683 108.407 334.683 108.407H334.681Z" fill="#1C1C1E"/>
</g>
<defs>
<clipPath id="clip0_63_6976">
<rect width="750" height="1050" fill="white"/>
</clipPath>
</defs>
</svg>
