<svg width="750" height="1050" viewBox="0 0 750 1050" fill="none" xmlns="http://www.w3.org/2000/svg">
<g clip-path="url(#clip0_63_7196)">
<path d="M0 50C0 22.3858 22.3858 0 50 0H700C727.614 0 750 22.3858 750 50V1000C750 1027.61 727.614 1050 700 1050H50C22.3858 1050 0 1027.61 0 1000V50Z" fill="#FFFCF5"/>
<path d="M754.341 536.834C750.935 536.834 747.515 536.92 744.167 537.078C752.2 514.174 756.625 489.575 756.625 463.97C756.625 342.022 657.753 243.105 535.776 243.105C413.784 243.105 314.912 342.022 314.912 463.97C314.912 489.575 319.323 514.173 327.355 537.078C323.993 536.92 320.602 536.834 317.197 536.834C195.205 536.834 96.3472 635.707 96.3472 757.639C96.3472 879.631 195.205 978.489 317.197 978.489C389.128 978.489 452.912 944.032 493.217 890.795C469.12 984.179 437.077 1081.46 402.393 1112.84H669.108C634.465 1081.47 602.466 984.319 578.325 890.968C618.659 944.088 682.468 978.474 754.33 978.474C876.252 978.474 975.15 879.616 975.15 757.625C975.165 635.703 876.263 536.834 754.345 536.834H754.341ZM545.935 684.53C545.605 685.565 544.024 684.573 544.024 684.573C544.657 684.573 545.303 684.573 545.935 684.53Z" fill="#1C1C1E"/>
<path d="M177.563 181.455H164.294V151.269H145.055V181.455H108.732L148.704 104H127.972L88 181.455V199.202H145.055V220.1H164.294V199.202H177.563V181.455Z" fill="#1C1C1E"/>
<path d="M302.567 144.454C302.146 144.454 301.722 144.464 301.308 144.484C302.302 141.649 302.85 138.604 302.85 135.435C302.85 120.341 290.612 108.098 275.515 108.098C260.415 108.098 248.177 120.341 248.177 135.435C248.177 138.604 248.723 141.649 249.718 144.484C249.301 144.464 248.882 144.454 248.46 144.454C233.361 144.454 221.125 156.691 221.125 171.784C221.125 186.883 233.361 199.119 248.46 199.119C257.363 199.119 265.258 194.854 270.247 188.265C267.264 199.823 263.298 211.864 259.005 215.748H292.018C287.73 211.865 283.769 199.841 280.781 188.286C285.773 194.861 293.671 199.117 302.566 199.117C317.657 199.117 329.898 186.881 329.898 171.782C329.899 156.691 317.658 144.454 302.568 144.454H302.567ZM276.772 162.735C276.731 162.863 276.536 162.74 276.536 162.74C276.614 162.74 276.694 162.74 276.772 162.735Z" fill="#1C1C1E"/>
</g>
<defs>
<clipPath id="clip0_63_7196">
<rect width="750" height="1050" fill="white"/>
</clipPath>
</defs>
</svg>
