<svg width="750" height="1050" viewBox="0 0 750 1050" fill="none" xmlns="http://www.w3.org/2000/svg">
<g clip-path="url(#clip0_63_6975)">
<path d="M0 50C0 22.3858 22.3858 0 50 0H700C727.614 0 750 22.3858 750 50V1000C750 1027.61 727.614 1050 700 1050H50C22.3858 1050 0 1027.61 0 1000V50Z" fill="#FFFCF5"/>
<path d="M540.444 248.623C540.444 248.623 74.2765 426.538 74.2765 745.175C74.2765 879.522 183.176 988.411 317.513 988.411C382.661 988.411 441.803 962.705 485.441 921.007C462.695 1003.57 434.101 1083.39 403.496 1111.12H667.221C636.63 1083.39 608.035 1003.57 585.277 921.007C628.899 962.721 688.045 988.411 753.249 988.411C887.556 988.411 996.441 879.522 996.441 745.175C996.484 424.276 540.462 248.623 540.462 248.623H540.444Z" fill="#1C1C1E"/>
<path d="M172.144 142.541C172.144 119.213 155.269 103 131.28 103C107.291 103 90.25 119.213 90.25 142.541C90.25 165.868 107.291 182.081 131.28 182.081H133.265L106.794 220.96H128.632L165.195 165.868C169.662 159.416 172.144 151.474 172.144 142.541ZM109.276 142.541C109.276 129.305 118.706 121.033 131.28 121.033C143.853 121.033 153.118 129.305 153.118 142.541C153.118 155.776 143.853 164.048 131.28 164.048C118.706 164.048 109.276 155.61 109.276 142.541Z" fill="#1C1C1E"/>
<path d="M270.427 109.423C270.427 109.423 212.872 131.389 212.872 170.729C212.872 187.316 226.317 200.76 242.903 200.76C250.946 200.76 258.248 197.586 263.636 192.438C260.827 202.632 257.297 212.487 253.518 215.911H286.079C282.302 212.487 278.772 202.632 275.962 192.438C281.348 197.588 288.65 200.76 296.7 200.76C313.282 200.76 326.726 187.316 326.726 170.729C326.731 131.11 270.429 109.423 270.429 109.423H270.427Z" fill="#1C1C1E"/>
</g>
<defs>
<clipPath id="clip0_63_6975">
<rect width="750" height="1050" fill="white"/>
</clipPath>
</defs>
</svg>
