<svg width="750" height="1050" viewBox="0 0 750 1050" fill="none" xmlns="http://www.w3.org/2000/svg">
<g clip-path="url(#clip0_63_6967)">
<path d="M0 50C0 22.3858 22.3858 0 50 0H700C727.614 0 750 22.3858 750 50V1000C750 1027.61 727.614 1050 700 1050H50C22.3858 1050 0 1027.61 0 1000V50Z" fill="#FFFCF5"/>
<path d="M540.444 248.623C540.444 248.623 74.2764 426.538 74.2764 745.175C74.2764 879.522 183.176 988.411 317.513 988.411C382.661 988.411 441.803 962.705 485.44 921.007C462.694 1003.57 434.101 1083.39 403.496 1111.12H667.221C636.63 1083.39 608.035 1003.57 585.277 921.007C628.899 962.721 688.045 988.411 753.249 988.411C887.556 988.411 996.441 879.522 996.441 745.175C996.484 424.276 540.462 248.623 540.462 248.623H540.444Z" fill="#1C1C1E"/>
<path d="M169.412 220.1H189.978L148.016 104H125.128L83 220.1H103.732L111.859 196.714H161.285L169.412 220.1ZM118.162 178.802L136.572 126.391L154.982 178.802H118.162Z" fill="#1C1C1E"/>
<path d="M288.508 108.78C288.508 108.78 230.808 130.801 230.808 170.24C230.808 186.869 244.287 200.347 260.914 200.347C268.978 200.347 276.298 197.165 281.7 192.004C278.884 202.223 275.345 212.103 271.557 215.535H304.199C300.413 212.103 296.874 202.223 294.057 192.004C299.456 197.167 306.777 200.347 314.847 200.347C331.471 200.347 344.948 186.869 344.948 170.24C344.953 130.521 288.51 108.78 288.51 108.78H288.508Z" fill="#1C1C1E"/>
</g>
<defs>
<clipPath id="clip0_63_6967">
<rect width="750" height="1050" fill="white"/>
</clipPath>
</defs>
</svg>
