<svg width="750" height="1050" viewBox="0 0 750 1050" fill="none" xmlns="http://www.w3.org/2000/svg">
<g clip-path="url(#clip0_157_5634)">
<path fill-rule="evenodd" clip-rule="evenodd" d="M700 16H50C31.2223 16 16 31.2223 16 50V1000C16 1018.78 31.2223 1034 50 1034H700C718.778 1034 734 1018.78 734 1000V50C734 31.2223 718.778 16 700 16ZM50 0C22.3858 0 0 22.3858 0 50V1000C0 1027.61 22.3858 1050 50 1050H700C727.614 1050 750 1027.61 750 1000V50C750 22.3858 727.614 0 700 0H50Z" fill="black"/>
<path fill-rule="evenodd" clip-rule="evenodd" d="M375 695C468.888 695 545 618.888 545 525C545 431.112 468.888 355 375 355C281.112 355 205 431.112 205 525C205 618.888 281.112 695 375 695ZM375 661C450.111 661 511 600.111 511 525C511 449.889 450.111 389 375 389C299.889 389 239 449.889 239 525C239 600.111 299.889 661 375 661Z" fill="#1C1C1E"/>
</g>
<defs>
<clipPath id="clip0_157_5634">
<rect width="750" height="1050" fill="white"/>
</clipPath>
</defs>
</svg>
