<svg width="750" height="1050" viewBox="0 0 750 1050" fill="none" xmlns="http://www.w3.org/2000/svg">
<g clip-path="url(#clip0_63_7193)">
<path d="M0 50C0 22.3858 22.3858 0 50 0H700C727.614 0 750 22.3858 750 50V1000C750 1027.61 727.614 1050 700 1050H50C22.3858 1050 0 1027.61 0 1000V50Z" fill="#FFFCF5"/>
<path d="M754.341 536.834C750.935 536.834 747.515 536.92 744.167 537.078C752.2 514.174 756.625 489.575 756.625 463.97C756.625 342.022 657.753 243.105 535.776 243.105C413.784 243.105 314.912 342.022 314.912 463.97C314.912 489.575 319.323 514.173 327.355 537.078C323.993 536.92 320.602 536.834 317.197 536.834C195.205 536.834 96.3472 635.707 96.3472 757.639C96.3472 879.631 195.205 978.489 317.197 978.489C389.128 978.489 452.912 944.032 493.217 890.795C469.12 984.179 437.077 1081.46 402.393 1112.84H669.108C634.465 1081.47 602.466 984.319 578.325 890.968C618.659 944.088 682.468 978.474 754.33 978.474C876.252 978.474 975.15 879.616 975.15 757.625C975.165 635.703 876.263 536.834 754.345 536.834H754.341ZM545.935 684.53C545.605 685.565 544.024 684.573 544.024 684.573C544.657 684.573 545.303 684.573 545.935 684.53Z" fill="#1C1C1E"/>
<path d="M169.412 220.1H189.978L148.016 104H125.128L83 220.1H103.732L111.859 196.714H161.285L169.412 220.1ZM118.162 178.802L136.572 126.391L154.982 178.802H118.162Z" fill="#1C1C1E"/>
<path d="M314.983 144.454C314.561 144.454 314.138 144.464 313.723 144.484C314.718 141.649 315.265 138.604 315.265 135.435C315.265 120.341 303.027 108.098 287.93 108.098C272.831 108.098 260.593 120.341 260.593 135.435C260.593 138.604 261.139 141.649 262.133 144.484C261.717 144.464 261.297 144.454 260.875 144.454C245.776 144.454 233.54 156.691 233.54 171.784C233.54 186.883 245.776 199.119 260.875 199.119C269.779 199.119 277.674 194.854 282.662 188.265C279.68 199.823 275.713 211.864 271.421 215.748H304.433C300.145 211.865 296.184 199.841 293.196 188.286C298.189 194.861 306.087 199.117 314.981 199.117C330.072 199.117 342.313 186.881 342.313 171.782C342.315 156.691 330.073 144.454 314.983 144.454H314.983ZM289.187 162.735C289.146 162.863 288.951 162.74 288.951 162.74C289.029 162.74 289.109 162.74 289.187 162.735Z" fill="#1C1C1E"/>
</g>
<defs>
<clipPath id="clip0_63_7193">
<rect width="750" height="1050" fill="white"/>
</clipPath>
</defs>
</svg>
