<svg width="750" height="1050" viewBox="0 0 750 1050" fill="none" xmlns="http://www.w3.org/2000/svg">
<g clip-path="url(#clip0_63_6968)">
<path d="M0 50C0 22.3858 22.3858 0 50 0H700C727.614 0 750 22.3858 750 50V1000C750 1027.61 727.614 1050 700 1050H50C22.3858 1050 0 1027.61 0 1000V50Z" fill="#FFFCF5"/>
<path d="M540.444 248.623C540.444 248.623 74.2764 426.538 74.2764 745.175C74.2764 879.522 183.176 988.411 317.513 988.411C382.661 988.411 441.803 962.705 485.44 921.007C462.694 1003.57 434.101 1083.39 403.496 1111.12H667.221C636.63 1083.39 608.035 1003.57 585.277 921.007C628.899 962.721 688.045 988.411 753.249 988.411C887.556 988.411 996.441 879.522 996.441 745.175C996.484 424.276 540.462 248.623 540.462 248.623H540.444Z" fill="#1C1C1E"/>
<path d="M92.181 220.96H168.45V202.596H120.472L146.611 176.456C157.696 165.206 166.299 153.129 166.299 138.735C166.299 115.739 148.266 103 129.24 103C113.854 103 99.295 110.61 91.8501 126.493L107.898 135.923C112.365 126.658 119.81 121.529 129.405 121.529C139.332 121.529 147.273 127.816 147.273 139.397C147.273 148.166 140.821 156.603 132.549 164.875L92.181 206.07V220.96Z" fill="#1C1C1E"/>
<path d="M266.733 109.423C266.733 109.423 209.178 131.389 209.178 170.729C209.178 187.316 222.623 200.76 239.209 200.76C247.252 200.76 254.554 197.586 259.942 192.438C257.133 202.632 253.603 212.487 249.825 215.911H282.385C278.608 212.487 275.078 202.632 272.268 192.438C277.654 197.588 284.956 200.76 293.006 200.76C309.588 200.76 323.032 187.316 323.032 170.729C323.037 131.11 266.735 109.423 266.735 109.423H266.733Z" fill="#1C1C1E"/>
</g>
<defs>
<clipPath id="clip0_63_6968">
<rect width="750" height="1050" fill="white"/>
</clipPath>
</defs>
</svg>
