<svg width="750" height="1050" viewBox="0 0 750 1050" fill="none" xmlns="http://www.w3.org/2000/svg">
<g clip-path="url(#clip0_155_5629)">
<path fill-rule="evenodd" clip-rule="evenodd" d="M700 16H50C31.2223 16 16 31.2223 16 50V1000C16 1018.78 31.2223 1034 50 1034H700C718.778 1034 734 1018.78 734 1000V50C734 31.2223 718.778 16 700 16ZM50 0C22.3858 0 0 22.3858 0 50V1000C0 1027.61 22.3858 1050 50 1050H700C727.614 1050 750 1027.61 750 1000V50C750 22.3858 727.614 0 700 0H50Z" fill="black"/>
<path d="M375 355C420.685 355 463.545 373.126 495.207 404.793C500.921 410.504 506.212 416.603 511.043 423.043L511 389C511 380.283 517.563 373.096 526.017 372.115L528 372.001C536.718 372.001 543.904 378.563 544.886 387.018L544.999 389V474C544.999 482.718 538.437 489.904 529.982 490.886L528 491H443C433.611 491 426 483.389 426 474C426 465.282 432.563 458.096 441.017 457.114L443 457L492.812 457.005C486.868 446.733 479.592 437.259 471.166 428.835C445.815 403.482 411.576 389.001 375.001 389.001C299.892 389.001 239.002 449.891 239.002 525C239.002 600.11 299.892 661 375.001 661C411.576 661 445.818 646.518 471.166 621.166C483.797 608.537 493.848 593.546 500.688 577.053C504.089 568.852 506.679 560.321 508.41 551.561C510.234 542.349 519.177 536.361 528.386 538.182C537.598 540.004 543.586 548.947 541.765 558.159C539.595 569.127 536.352 579.809 532.095 590.076C523.541 610.705 510.981 629.436 495.207 645.207C463.543 676.873 420.686 695 374.999 695C281.111 695 205 618.889 205 525.001C205 431.113 281.111 355.002 374.999 355.002L375 355Z" fill="#1C1C1E"/>
</g>
<defs>
<clipPath id="clip0_155_5629">
<rect width="750" height="1050" fill="white"/>
</clipPath>
</defs>
</svg>
