<svg width="750" height="1050" viewBox="0 0 750 1050" fill="none" xmlns="http://www.w3.org/2000/svg">
<g clip-path="url(#clip0_63_7426)">
<path d="M0 50C0 22.3858 22.3858 0 50 0H700C727.614 0 750 22.3858 750 50V1000C750 1027.61 727.614 1050 700 1050H50C22.3858 1050 0 1027.61 0 1000V50Z" fill="#FFFCF5"/>
<path d="M536.067 221.035L995.098 680.067L536.067 1139.1L77.0353 680.067L536.067 221.035Z" fill="#FF3B30"/>
<path d="M154.486 159.599C162.408 154.483 167.689 146.231 167.689 135.173C167.689 112.893 150.195 102 131.05 102C111.74 102 94.4109 112.893 94.4109 135.173C94.4109 146.231 99.6923 154.483 107.449 159.599C96.8866 165.541 90.45 175.608 90.45 187.656C90.45 209.112 106.954 221.82 131.05 221.82C155.146 221.82 171.485 209.112 171.485 187.656C171.485 175.443 165.214 165.541 154.486 159.599ZM131.05 119.99C140.623 119.99 148.71 125.271 148.71 135.999C148.71 146.231 140.623 152.008 131.05 152.008C121.313 152.008 113.391 146.231 113.391 135.999C113.391 125.271 121.313 119.99 131.05 119.99ZM131.05 203.83C118.507 203.83 109.43 197.559 109.43 185.841C109.43 173.958 118.507 167.851 131.05 167.851C143.428 167.851 152.505 173.958 152.505 185.841C152.505 197.559 143.428 203.83 131.05 203.83Z" fill="#FF3B30"/>
<path d="M268.991 105.01L325.528 161.546L268.991 218.083L212.454 161.546L268.991 105.01Z" fill="#FF3B30"/>
</g>
<defs>
<clipPath id="clip0_63_7426">
<rect width="750" height="1050" fill="white"/>
</clipPath>
</defs>
</svg>
