<svg width="750" height="1050" viewBox="0 0 750 1050" fill="none" xmlns="http://www.w3.org/2000/svg">
<g clip-path="url(#clip0_63_7419)">
<path d="M0 50C0 22.3858 22.3858 0 50 0H700C727.614 0 750 22.3858 750 50V1000C750 1027.61 727.614 1050 700 1050H50C22.3858 1050 0 1027.61 0 1000V50Z" fill="#FFFCF5"/>
<path d="M536.067 221.035L995.098 680.067L536.067 1139.1L77.0352 680.067L536.067 221.035Z" fill="#FF3B30"/>
<path d="M169.412 220.1H189.978L148.016 104H125.128L83 220.1H103.732L111.859 196.714H161.285L169.412 220.1ZM118.162 178.802L136.572 126.391L154.982 178.802H118.162Z" fill="#FF3B30"/>
<path d="M287.966 105.366L344.782 162.182L287.966 218.999L231.149 162.182L287.966 105.366Z" fill="#FF3B30"/>
</g>
<defs>
<clipPath id="clip0_63_7419">
<rect width="750" height="1050" fill="white"/>
</clipPath>
</defs>
</svg>
