<svg width="750" height="1050" viewBox="0 0 750 1050" fill="none" xmlns="http://www.w3.org/2000/svg">
<g clip-path="url(#clip0_63_6748)">
<path d="M0 50C0 22.3858 22.3858 0 50 0H700C727.614 0 750 22.3858 750 50V1000C750 1027.61 727.614 1050 700 1050H50C22.3858 1050 0 1027.61 0 1000V50Z" fill="#FFFCF5"/>
<path d="M997.563 552.826C997.563 418.335 888.545 309.317 754.095 309.317C658.455 309.317 575.764 364.42 535.945 444.584C496.042 364.406 413.421 309.317 317.756 309.317C183.32 309.317 74.2765 418.335 74.2765 552.826C74.2765 874.115 530.843 1049.97 530.843 1049.97C530.858 1049.95 997.563 871.878 997.563 552.826Z" fill="#FF3B30"/>
<path d="M154.486 159.599C162.408 154.483 167.689 146.231 167.689 135.173C167.689 112.893 150.195 102 131.05 102C111.74 102 94.4109 112.893 94.4109 135.173C94.4109 146.231 99.6923 154.483 107.449 159.599C96.8866 165.541 90.45 175.608 90.45 187.656C90.45 209.112 106.954 221.82 131.05 221.82C155.146 221.82 171.485 209.112 171.485 187.656C171.485 175.443 165.214 165.541 154.486 159.599ZM131.05 119.99C140.623 119.99 148.71 125.271 148.71 135.999C148.71 146.231 140.623 152.008 131.05 152.008C121.313 152.008 113.391 146.231 113.391 135.999C113.391 125.271 121.313 119.99 131.05 119.99ZM131.05 203.83C118.507 203.83 109.43 197.559 109.43 185.841C109.43 173.958 118.507 167.851 131.05 167.851C143.428 167.851 152.505 173.958 152.505 185.841C152.505 197.559 143.428 203.83 131.05 203.83Z" fill="#FF3B30"/>
<path d="M325.831 145.875C325.831 129.31 312.404 115.883 295.845 115.883C284.065 115.883 273.88 122.67 268.976 132.543C264.061 122.668 253.885 115.883 242.103 115.883C225.545 115.883 212.115 129.31 212.115 145.875C212.115 185.446 268.348 207.105 268.348 207.105C268.35 207.103 325.831 185.171 325.831 145.875Z" fill="#FF3B30"/>
</g>
<defs>
<clipPath id="clip0_63_6748">
<rect width="750" height="1050" fill="white"/>
</clipPath>
</defs>
</svg>
