<svg width="750" height="1050" viewBox="0 0 750 1050" fill="none" xmlns="http://www.w3.org/2000/svg">
<g clip-path="url(#clip0_157_5655)">
<path fill-rule="evenodd" clip-rule="evenodd" d="M700 16H50C31.2223 16 16 31.2223 16 50V1000C16 1018.78 31.2223 1034 50 1034H700C718.778 1034 734 1018.78 734 1000V50C734 31.2223 718.778 16 700 16ZM50 0C22.3858 0 0 22.3858 0 50V1000C0 1027.61 22.3858 1050 50 1050H700C727.614 1050 750 1027.61 750 1000V50C750 22.3858 727.614 0 700 0H50Z" fill="black"/>
<path d="M454.505 473.469C453.271 473.469 452.031 473.5 450.818 473.557C453.729 465.255 455.333 456.339 455.333 447.057C455.333 402.855 419.495 367 375.281 367C331.063 367 295.224 402.855 295.224 447.057C295.224 456.339 296.823 465.255 299.734 473.557C298.516 473.5 297.286 473.469 296.052 473.469C251.833 473.469 216 509.307 216 553.505C216 597.723 251.833 633.557 296.052 633.557C322.125 633.557 345.245 621.067 359.855 601.77C351.12 635.619 339.505 670.879 326.933 682.254H423.611C411.053 670.884 399.455 635.67 390.704 601.833C405.324 621.087 428.453 633.551 454.501 633.551C498.695 633.551 534.543 597.718 534.543 553.499C534.548 509.306 498.699 473.469 454.507 473.469H454.505ZM378.964 527.005C378.844 527.38 378.271 527.02 378.271 527.02C378.5 527.02 378.735 527.02 378.964 527.005Z" fill="#1C1C1E"/>
</g>
<defs>
<clipPath id="clip0_157_5655">
<rect width="750" height="1050" fill="white"/>
</clipPath>
</defs>
</svg>
