<svg width="750" height="1050" viewBox="0 0 750 1050" fill="none" xmlns="http://www.w3.org/2000/svg">
<g clip-path="url(#clip0_63_6745)">
<path d="M0 50C0 22.3858 22.3858 0 50 0H700C727.614 0 750 22.3858 750 50V1000C750 1027.61 727.614 1050 700 1050H50C22.3858 1050 0 1027.61 0 1000V50Z" fill="#FFFCF5"/>
<path d="M997.563 552.826C997.563 418.335 888.545 309.317 754.095 309.317C658.455 309.317 575.764 364.42 535.945 444.584C496.042 364.406 413.42 309.317 317.755 309.317C183.32 309.317 74.2764 418.335 74.2764 552.826C74.2764 874.115 530.843 1049.97 530.843 1049.97C530.858 1049.95 997.563 871.878 997.563 552.826Z" fill="#FF3B30"/>
<path d="M131.383 146.677H116.824L118.81 120.868H165.795V103H101.273L96.806 165.206H130.556C143.13 165.206 151.733 172.155 151.733 183.736C151.733 195.317 143.13 202.431 130.225 202.431C118.148 202.431 110.207 196.971 107.229 186.714L90.8501 196.144C96.9714 212.853 112.688 220.96 130.225 220.96C151.567 220.96 170.758 208.056 170.758 183.736C170.758 159.581 152.394 146.677 131.383 146.677Z" fill="#FF3B30"/>
<path d="M325.479 146.981C325.479 130.376 312.019 116.916 295.42 116.916C283.612 116.916 273.402 123.719 268.486 133.617C263.559 123.717 253.359 116.916 241.547 116.916C224.949 116.916 211.486 130.376 211.486 146.981C211.486 186.648 267.856 208.359 267.856 208.359C267.858 208.358 325.479 186.372 325.479 146.981Z" fill="#FF3B30"/>
</g>
<defs>
<clipPath id="clip0_63_6745">
<rect width="750" height="1050" fill="white"/>
</clipPath>
</defs>
</svg>
