<svg width="24" height="24" viewBox="0 0 24 24" fill="none" xmlns="http://www.w3.org/2000/svg">
<path fill-rule="evenodd" clip-rule="evenodd" d="M2.43934 6.68198C1.85355 7.26777 1.85355 8.21751 2.43934 8.8033L6.68198 13.0459C7.26777 13.6317 8.21751 13.6317 8.8033 13.0459C9.38909 12.4602 9.38909 11.5104 8.8033 10.9246L7.12132 9.24264H14.5C16.9853 9.24264 19 11.2574 19 13.7426C19 16.2279 16.9853 18.2426 14.5 18.2426H8.50002C7.67159 18.2426 7.00002 18.9142 7.00002 19.7426C7.00002 20.5711 7.67159 21.2426 8.50002 21.2426H14.5C18.6422 21.2426 22 17.8848 22 13.7426C22 9.6005 18.6422 6.24264 14.5 6.24264H7.12132L8.8033 4.56066C9.38909 3.97487 9.38909 3.02513 8.8033 2.43934C8.21751 1.85355 7.26777 1.85355 6.68198 2.43934L2.43934 6.68198Z" fill="white"/>
</svg>
