<svg width="750" height="1050" viewBox="0 0 750 1050" fill="none" xmlns="http://www.w3.org/2000/svg">
<g clip-path="url(#clip0_63_6979)">
<path d="M0 50C0 22.3858 22.3858 0 50 0H700C727.614 0 750 22.3858 750 50V1000C750 1027.61 727.614 1050 700 1050H50C22.3858 1050 0 1027.61 0 1000V50Z" fill="#FFFCF5"/>
<path d="M176.173 220.1L127.577 160.557L174.514 104H151.792L107.674 156.079V104H88.6001V220.1H107.674V164.87L153.45 220.1H176.173Z" fill="#1C1C1E"/>
<path d="M274.702 108.78C274.702 108.78 217.003 130.801 217.003 170.24C217.003 186.869 230.482 200.347 247.109 200.347C255.173 200.347 262.493 197.165 267.894 192.004C265.079 202.223 261.54 212.103 257.752 215.535H290.394C286.608 212.103 283.068 202.223 280.251 192.004C285.651 197.167 292.971 200.347 301.042 200.347C317.666 200.347 331.143 186.869 331.143 170.24C331.148 130.521 274.705 108.78 274.705 108.78H274.702Z" fill="#1C1C1E"/>
<g clip-path="url(#clip1_63_6979)">
<path d="M812.908 580.535C810.94 590.334 804.094 597.202 795.28 600.133C785.481 602.101 775.682 599.148 769.798 591.318L546.378 312.034L322.98 591.296C317.096 599.126 307.297 602.079 297.499 600.11C288.684 597.179 281.816 590.312 279.87 580.513C248.506 425.705 140.718 377.669 88.7964 362.972L143.673 915.61H949.123L1004 362.972C952.032 376.707 844.248 424.714 812.904 580.53L812.908 580.535ZM651.23 666.752L567.942 831.359C564.027 840.173 555.212 845.072 546.376 845.072C537.561 845.072 528.747 840.173 524.81 831.359L441.521 666.752C438.59 659.884 438.59 651.07 441.521 644.224L524.81 479.618C532.64 462.951 560.089 462.951 567.919 479.618L651.208 644.224C654.161 651.071 654.161 659.885 651.23 666.752Z" fill="#1C1C1E"/>
<path d="M137.754 964.588L97.5972 1065.53H995.154L954.997 964.588H137.754Z" fill="#1C1C1E"/>
</g>
</g>
<defs>
<clipPath id="clip0_63_6979">
<rect width="750" height="1050" fill="white"/>
</clipPath>
<clipPath id="clip1_63_6979">
<rect width="915" height="915" fill="white" transform="translate(89 230)"/>
</clipPath>
</defs>
</svg>
