<svg width="750" height="1050" viewBox="0 0 750 1050" fill="none" xmlns="http://www.w3.org/2000/svg">
<path d="M0 50C0 22.3858 22.3858 0 50 0H700C727.614 0 750 22.3858 750 50V1000C750 1027.61 727.614 1050 700 1050H50C22.3858 1050 0 1027.61 0 1000V50Z" fill="#FFFCF5"/>
<g clip-path="url(#clip0_157_8856)">
<path d="M40 50C40 44.4772 44.4772 40 50 40H700C705.523 40 710 44.4772 710 50V1000C710 1005.52 705.523 1010 700 1010H50C44.4771 1010 40 1005.52 40 1000V50Z" fill="#8D79C6"/>
<path fill-rule="evenodd" clip-rule="evenodd" d="M3027.9 221.347V4059.35C3027.9 4159.16 2947.08 4240 2847.4 4240H209.739C110.054 4240 29.2329 4159.16 29.2329 4059.35V221.347C29.2329 121.541 110.054 40.6992 209.739 40.6992H2847.4C2947.08 40.6992 3027.9 121.541 3027.9 221.347Z" fill="#27374D"/>
<path fill-rule="evenodd" clip-rule="evenodd" d="M2847.4 40.6992H209.739C110.054 40.6992 29.2329 121.541 29.2329 221.347V2389.12L3027.9 1890.53V221.347C3027.9 121.541 2947.08 40.6992 2847.4 40.6992Z" fill="#5DA9C9"/>
<path fill-rule="evenodd" clip-rule="evenodd" d="M1321.76 2137.6C1295.55 2124.92 1268.2 2115.31 1240.24 2109.02C1230.1 2106.74 1220.32 2103.69 1210.79 2100.19C1144.65 2071.35 1094.75 2012.79 1075.28 1941.92C1060.6 1875.49 1028.09 1812.31 977.417 1759.96L975.582 1757.95C974.01 1756.29 972.35 1754.89 970.777 1753.31C968.767 1751.48 966.845 1749.56 964.835 1747.72C962.301 1745.36 959.672 1742.91 956.972 1740.55C952.603 1736.71 948.4 1733.13 944.128 1729.63C943.341 1728.93 942.555 1728.32 941.769 1727.71C936.614 1723.51 931.284 1719.49 925.954 1715.56L925.167 1715.04C883.315 1685.06 836.745 1664.43 788.34 1653.51C744.216 1643.63 705.334 1621.08 674.579 1590.06C644.609 1559.12 622.678 1520.05 611.931 1476.71C596.204 1412.99 563.701 1352.6 514.422 1302.44L513.81 1301.83L512.5 1300.34C478.598 1265.82 439.63 1239.25 398.04 1220.46C371.827 1207.79 344.479 1198.09 316.519 1191.79C306.384 1189.52 296.598 1186.55 287.074 1182.97C261.474 1171.78 238.232 1156.14 218.224 1137C215.69 1134.55 213.505 1132.28 211.321 1130.01C184.322 1101.34 164.226 1065.94 153.479 1026.79C138.626 959.495 105.511 895.521 53.6981 842.734C48.3683 837.315 42.8638 832.159 37.2718 827.177C34.5545 824.73 31.942 822.37 29.2334 820.011V2389.12L1361.78 2166.87L1363.26 2158.4C1363.26 2158.4 1357.15 2155.95 1356.18 2155.42C1344.91 2148.87 1333.47 2142.93 1321.76 2137.6Z" fill="#F0BA3C"/>
<path fill-rule="evenodd" clip-rule="evenodd" d="M809.222 1087.71L810.62 1089.19C845.307 1122.93 884.8 1148.62 926.827 1166.54C953.301 1178.6 980.912 1187.69 1008.96 1193.37C1019.09 1195.38 1028.97 1198.17 1038.58 1201.5C1040.24 1202.19 1041.9 1203.07 1043.56 1203.77H1877.2C1849.05 1190.48 1819.79 1180.52 1789.82 1174.49C1700.87 1156.57 1631.41 1087.27 1607.65 999.698C1590.43 936.335 1556.62 876.644 1506.2 827.615C1471.51 793.792 1432.02 768.098 1390 750.182C1363.52 738.121 1336 729.032 1307.87 723.438C1297.73 721.341 1287.86 718.544 1278.24 715.223C1211.49 687.868 1160.28 630.449 1139.23 560.007C1123.16 494.023 1089.26 431.448 1037.44 380.233L1035.42 378.311C1033.86 376.738 1032.2 375.339 1030.54 373.853C1028.53 372.018 1026.61 370.183 1024.5 368.348C1021.89 365.988 1019.27 363.628 1016.56 361.356C1012.02 357.598 1007.82 354.102 1003.45 350.693C1002.66 350.082 1001.87 349.383 1001.01 348.771C995.765 344.751 990.348 340.818 984.931 337.06L984.145 336.535C941.593 307.52 894.586 287.856 846.006 278.067C801.699 269.153 762.214 247.479 730.847 217.152C700.179 186.913 677.374 148.284 665.666 105.198C659.724 83.1738 651.599 61.5869 641.551 40.6992H29.2329V287.593C41.0284 291.264 52.9987 294.498 65.1437 296.857C75.2791 298.955 85.065 301.752 94.6674 305.073C161.43 332.428 212.622 389.847 233.776 460.288C249.853 526.272 283.754 588.848 335.567 640.062L337.489 641.985C339.149 643.558 340.8 644.956 342.382 646.442C344.383 648.278 346.401 650.113 348.402 651.948C351.032 654.308 353.74 656.668 356.449 658.94C360.905 662.698 365.178 666.194 369.555 669.602C370.341 670.214 371.128 670.913 371.914 671.525C377.244 675.545 382.574 679.478 388.078 683.236L388.777 683.76C431.416 712.776 478.336 732.44 527.003 742.228C571.302 751.143 610.708 772.817 642.162 803.144C672.743 833.383 695.548 872.012 707.256 915.098C724.46 978.373 758.282 1038.06 808.697 1087.18L809.222 1087.71Z" fill="#F53636"/>
<path fill-rule="evenodd" clip-rule="evenodd" d="M1091.97 1249.48C1080.96 1190.57 1095.63 1121.44 1126.83 1064.81C1156.01 1011.76 1129.35 947.784 1071.96 930.043C1050.72 923.401 1030.1 923.75 1011.23 929.081C1018.05 862.223 889.869 761.368 816.824 807.863C729.799 863.272 701.752 962.816 683.308 1065.68C664.085 1172.74 726.042 1296.84 682.268 1400.67C662.172 1448.21 627.047 1487.81 603.631 1533.51C576.021 1587.52 562.819 1645.03 562.819 1705.77C562.819 1764.5 592.701 1931.95 594.981 1990.6C596.03 2019.09 492.054 2130.6 459.377 2202.53C426.699 2274.37 433.689 2324.89 433.689 2324.89L895.286 2245.79C895.286 2245.79 1002.14 2110.59 1011.06 2061.56C1019.01 2017.95 972 1844.64 971.738 1801.56C983.097 1759.17 1008.26 1674.48 1028.71 1636.55C1058.67 1580.97 1112.5 1532.73 1129.97 1471.64C1150.76 1399.01 1105.6 1322.8 1091.97 1249.48Z" fill="#F53636"/>
<path fill-rule="evenodd" clip-rule="evenodd" d="M302.976 2941.29C348.148 2980.97 498.17 3039 539.061 3082.96C557.322 3102.63 545.352 3204.88 554.08 3286.16C563.604 3375.13 594.106 3443.47 618.484 3459.99C680.956 3502.11 735.565 3413.14 751.555 3284.23C751.38 3226.55 711.537 3076.76 711.354 3037.17C722.721 2994.69 747.797 2910 768.243 2872.07C798.212 2816.49 852.122 2768.33 869.597 2707.16C890.305 2634.53 845.22 2558.32 831.493 2485C820.493 2426.09 835.163 2356.96 866.364 2300.33C876.063 2282.76 879.558 2263.88 877.81 2245.97L894.062 2243.17C894.062 2243.17 1000.92 2107.97 1009.83 2059.03C1017.78 2015.33 970.776 1842.02 970.514 1799.02C981.873 1756.55 1007.04 1671.86 1027.48 1633.93C1057.45 1578.35 1111.27 1530.11 1128.75 1469.02C1149.54 1396.39 1104.46 1320.18 1090.73 1246.85C1079.73 1187.95 1094.4 1118.82 1125.6 1062.19C1154.79 1009.14 1128.14 945.25 1070.73 927.421C1049.5 920.779 1028.87 921.128 1010.01 926.459C1016.81 859.601 888.645 758.746 815.687 805.241C728.575 860.65 700.528 960.194 682.092 1063.06C662.879 1170.12 724.818 1294.22 681.044 1398.05C661.035 1445.59 625.823 1485.18 602.494 1530.98C574.797 1584.99 561.603 1642.5 561.603 1703.15C561.603 1761.97 591.564 1929.33 593.757 1987.97C594.194 1999.25 578.204 2023.37 556.798 2053C480.782 2110.24 440.075 2205.24 422.853 2301.2C403.631 2408.26 479.559 2568.98 435.785 2672.72C415.689 2720.35 375.06 2731.89 351.643 2777.6C324.12 2831.52 302.53 2880.38 302.452 2940.85L302.976 2941.29Z" fill="#F53636"/>
</g>
<defs>
<clipPath id="clip0_157_8856">
<rect x="40" y="40" width="670" height="970" rx="10" fill="white"/>
</clipPath>
</defs>
</svg>
