<svg width="750" height="1050" viewBox="0 0 750 1050" fill="none" xmlns="http://www.w3.org/2000/svg">
<g clip-path="url(#clip0_63_7428)">
<path d="M0 50C0 22.3858 22.3858 0 50 0H700C727.614 0 750 22.3858 750 50V1000C750 1027.61 727.614 1050 700 1050H50C22.3858 1050 0 1027.61 0 1000V50Z" fill="#FFFCF5"/>
<path d="M536.067 221.035L995.098 680.067L536.067 1139.1L77.0353 680.067L536.067 221.035Z" fill="#FF3B30"/>
<path d="M110.368 104.146L80 114.873L84.6212 131.047L107.892 124.446V219.674H126.872V104.146H110.368Z" fill="#FF3B30"/>
<path d="M191.249 221.82C220.297 221.82 236.636 197.559 236.636 161.91C236.636 126.261 220.297 102 191.249 102C162.202 102 145.863 126.261 145.863 161.91C145.863 197.559 162.202 221.82 191.249 221.82ZM191.249 203.335C174.25 203.335 164.843 188.482 164.843 161.91C164.843 135.338 174.25 120.485 191.249 120.485C208.414 120.485 217.656 135.338 217.656 161.91C217.656 188.482 208.414 203.335 191.249 203.335Z" fill="#FF3B30"/>
<path d="M334.142 105.01L390.679 161.546L334.142 218.083L277.605 161.546L334.142 105.01Z" fill="#FF3B30"/>
</g>
<defs>
<clipPath id="clip0_63_7428">
<rect width="750" height="1050" fill="white"/>
</clipPath>
</defs>
</svg>
