<svg width="750" height="1050" viewBox="0 0 750 1050" fill="none" xmlns="http://www.w3.org/2000/svg">
<g clip-path="url(#clip0_63_7421)">
<path d="M0 50C0 22.3858 22.3858 0 50 0H700C727.614 0 750 22.3858 750 50V1000C750 1027.61 727.614 1050 700 1050H50C22.3858 1050 0 1027.61 0 1000V50Z" fill="#FFFCF5"/>
<path d="M536.067 221.035L995.098 680.067L536.067 1139.1L77.0354 680.067L536.067 221.035Z" fill="#FF3B30"/>
<path d="M142.122 150.316L165.614 119.213V103H94.4743V120.868H142.949L117.967 153.791L125.577 165.206H129.879C142.949 165.206 151.386 172.155 151.386 183.736C151.386 195.317 142.949 202.431 129.879 202.431C118.298 202.431 110.522 197.302 107.213 187.541L91 196.971C97.4522 213.184 112.838 220.96 129.879 220.96C151.221 220.96 170.412 208.056 170.412 183.736C170.412 165.702 158.004 154.122 142.122 150.316Z" fill="#FF3B30"/>
<path d="M268.155 106.017L324.828 162.69L268.155 219.364L211.481 162.69L268.155 106.017Z" fill="#FF3B30"/>
</g>
<defs>
<clipPath id="clip0_63_7421">
<rect width="750" height="1050" fill="white"/>
</clipPath>
</defs>
</svg>
