<svg width="750" height="1050" viewBox="0 0 750 1050" fill="none" xmlns="http://www.w3.org/2000/svg">
<g clip-path="url(#clip0_63_7199)">
<path d="M0 50C0 22.3858 22.3858 0 50 0H700C727.614 0 750 22.3858 750 50V1000C750 1027.61 727.614 1050 700 1050H50C22.3858 1050 0 1027.61 0 1000V50Z" fill="#FFFCF5"/>
<path d="M754.341 536.834C750.935 536.834 747.515 536.92 744.167 537.078C752.2 514.174 756.625 489.575 756.625 463.97C756.625 342.022 657.753 243.105 535.776 243.105C413.784 243.105 314.912 342.022 314.912 463.97C314.912 489.575 319.323 514.173 327.355 537.078C323.993 536.92 320.602 536.834 317.196 536.834C195.205 536.834 96.347 635.707 96.347 757.639C96.347 879.631 195.205 978.489 317.196 978.489C389.128 978.489 452.912 944.032 493.217 890.795C469.12 984.179 437.077 1081.46 402.393 1112.84H669.108C634.465 1081.47 602.466 984.319 578.325 890.968C618.659 944.088 682.468 978.474 754.33 978.474C876.252 978.474 975.15 879.616 975.15 757.625C975.164 635.703 876.263 536.834 754.345 536.834H754.341ZM545.935 684.53C545.605 685.565 544.024 684.573 544.024 684.573C544.656 684.573 545.303 684.573 545.935 684.53Z" fill="#1C1C1E"/>
<path d="M92.75 104V122.244H145.824L105.687 220.1H125.756L166.556 120.586V104H92.75Z" fill="#1C1C1E"/>
<path d="M291.561 144.454C291.139 144.454 290.716 144.464 290.302 144.484C291.296 141.649 291.844 138.604 291.844 135.435C291.844 120.341 279.606 108.098 264.508 108.098C249.409 108.098 237.171 120.341 237.171 135.435C237.171 138.604 237.717 141.649 238.711 144.484C238.295 144.464 237.875 144.454 237.454 144.454C222.354 144.454 210.118 156.691 210.118 171.784C210.118 186.883 222.354 199.119 237.454 199.119C246.357 199.119 254.252 194.854 259.24 188.265C256.258 199.823 252.292 211.864 247.999 215.748H281.011C276.723 211.865 272.763 199.841 269.775 188.286C274.767 194.861 282.665 199.117 291.56 199.117C306.65 199.117 318.891 186.881 318.891 171.782C318.893 156.691 306.652 144.454 291.561 144.454H291.561ZM265.766 162.735C265.725 162.863 265.529 162.74 265.529 162.74C265.607 162.74 265.687 162.74 265.766 162.735Z" fill="#1C1C1E"/>
</g>
<defs>
<clipPath id="clip0_63_7199">
<rect width="750" height="1050" fill="white"/>
</clipPath>
</defs>
</svg>
