<svg width="750" height="1050" viewBox="0 0 750 1050" fill="none" xmlns="http://www.w3.org/2000/svg">
<g clip-path="url(#clip0_63_7195)">
<path d="M0 50C0 22.3858 22.3858 0 50 0H700C727.614 0 750 22.3858 750 50V1000C750 1027.61 727.614 1050 700 1050H50C22.3858 1050 0 1027.61 0 1000V50Z" fill="#FFFCF5"/>
<path d="M754.341 536.834C750.935 536.834 747.515 536.92 744.167 537.078C752.2 514.174 756.625 489.575 756.625 463.97C756.625 342.022 657.753 243.105 535.776 243.105C413.784 243.105 314.912 342.022 314.912 463.97C314.912 489.575 319.323 514.173 327.355 537.078C323.993 536.92 320.602 536.834 317.197 536.834C195.205 536.834 96.3472 635.707 96.3472 757.639C96.3472 879.631 195.205 978.489 317.197 978.489C389.128 978.489 452.912 944.032 493.217 890.795C469.12 984.179 437.077 1081.46 402.393 1112.84H669.108C634.465 1081.47 602.466 984.319 578.325 890.968C618.659 944.088 682.468 978.474 754.33 978.474C876.252 978.474 975.15 879.616 975.15 757.625C975.165 635.703 876.263 536.834 754.345 536.834H754.341ZM545.935 684.53C545.605 685.565 544.024 684.573 544.024 684.573C544.657 684.573 545.303 684.573 545.935 684.53Z" fill="#1C1C1E"/>
<path d="M142.122 150.316L165.614 119.213V103H94.4743V120.868H142.949L117.967 153.791L125.577 165.206H129.879C142.949 165.206 151.386 172.155 151.386 183.736C151.386 195.317 142.949 202.431 129.879 202.431C118.298 202.431 110.522 197.302 107.213 187.541L91 196.971C97.4522 213.184 112.838 220.96 129.879 220.96C151.221 220.96 170.412 208.056 170.412 183.736C170.412 165.702 158.004 154.122 142.122 150.316Z" fill="#1C1C1E"/>
<path d="M295.103 145.006C294.683 145.006 294.261 145.017 293.847 145.036C294.839 142.208 295.386 139.171 295.386 136.01C295.386 120.954 283.178 108.741 268.119 108.741C253.057 108.741 240.85 120.954 240.85 136.01C240.85 139.171 241.394 142.208 242.386 145.036C241.971 145.017 241.552 145.006 241.132 145.006C226.07 145.006 213.865 157.213 213.865 172.268C213.865 187.329 226.07 199.535 241.132 199.535C250.013 199.535 257.888 195.28 262.864 188.708C259.889 200.237 255.933 212.247 251.651 216.122H284.58C280.303 212.249 276.352 200.254 273.372 188.729C278.352 195.287 286.23 199.533 295.102 199.533C310.155 199.533 322.366 187.327 322.366 172.266C322.367 157.213 310.156 145.006 295.104 145.006H295.103ZM269.373 163.241C269.332 163.369 269.137 163.247 269.137 163.247C269.215 163.247 269.295 163.247 269.373 163.241Z" fill="#1C1C1E"/>
</g>
<defs>
<clipPath id="clip0_63_7195">
<rect width="750" height="1050" fill="white"/>
</clipPath>
</defs>
</svg>
