<svg width="750" height="1050" viewBox="0 0 750 1050" fill="none" xmlns="http://www.w3.org/2000/svg">
<g clip-path="url(#clip0_63_7420)">
<path d="M0 50C0 22.3858 22.3858 0 50 0H700C727.614 0 750 22.3858 750 50V1000C750 1027.61 727.614 1050 700 1050H50C22.3858 1050 0 1027.61 0 1000V50Z" fill="#FFFCF5"/>
<path d="M536.067 221.035L995.098 680.067L536.067 1139.1L77.0352 680.067L536.067 221.035Z" fill="#FF3B30"/>
<path d="M92.181 220.96H168.45V202.596H120.472L146.611 176.456C157.696 165.206 166.299 153.129 166.299 138.735C166.299 115.739 148.266 103 129.24 103C113.854 103 99.295 110.61 91.8501 126.493L107.898 135.923C112.365 126.658 119.81 121.529 129.405 121.529C139.332 121.529 147.273 127.816 147.273 139.397C147.273 148.166 140.821 156.603 132.549 164.875L92.181 206.07V220.96Z" fill="#FF3B30"/>
<path d="M266.192 106.017L322.866 162.69L266.192 219.364L209.518 162.69L266.192 106.017Z" fill="#FF3B30"/>
</g>
<defs>
<clipPath id="clip0_63_7420">
<rect width="750" height="1050" fill="white"/>
</clipPath>
</defs>
</svg>
