<svg width="750" height="1050" viewBox="0 0 750 1050" fill="none" xmlns="http://www.w3.org/2000/svg">
<g clip-path="url(#clip0_63_6743)">
<path d="M0 50C0 22.3858 22.3858 0 50 0H700C727.614 0 750 22.3858 750 50V1000C750 1027.61 727.614 1050 700 1050H50C22.3858 1050 0 1027.61 0 1000V50Z" fill="#FFFCF5"/>
<path d="M997.563 552.826C997.563 418.335 888.545 309.317 754.095 309.317C658.455 309.317 575.764 364.42 535.945 444.584C496.042 364.406 413.42 309.317 317.755 309.317C183.32 309.317 74.2764 418.335 74.2764 552.826C74.2764 874.115 530.843 1049.97 530.843 1049.97C530.858 1049.95 997.563 871.878 997.563 552.826Z" fill="#FF3B30"/>
<path d="M142.122 150.316L165.614 119.213V103H94.4743V120.868H142.949L117.967 153.791L125.577 165.206H129.879C142.949 165.206 151.386 172.155 151.386 183.736C151.386 195.317 142.949 202.431 129.879 202.431C118.298 202.431 110.522 197.302 107.213 187.541L91 196.971C97.4522 213.184 112.838 220.96 129.879 220.96C151.221 220.96 170.412 208.056 170.412 183.736C170.412 165.702 158.004 154.122 142.122 150.316Z" fill="#FF3B30"/>
<path d="M325.132 146.981C325.132 130.376 311.673 116.916 295.073 116.916C283.265 116.916 273.056 123.719 268.139 133.617C263.213 123.717 253.012 116.916 241.201 116.916C224.603 116.916 211.14 130.376 211.14 146.981C211.14 186.648 267.509 208.359 267.509 208.359C267.511 208.358 325.132 186.372 325.132 146.981Z" fill="#FF3B30"/>
</g>
<defs>
<clipPath id="clip0_63_6743">
<rect width="750" height="1050" fill="white"/>
</clipPath>
</defs>
</svg>
