<svg width="750" height="1050" viewBox="0 0 750 1050" fill="none" xmlns="http://www.w3.org/2000/svg">
<g clip-path="url(#clip0_63_7424)">
<path d="M0 50C0 22.3858 22.3858 0 50 0H700C727.614 0 750 22.3858 750 50V1000C750 1027.61 727.614 1050 700 1050H50C22.3858 1050 0 1027.61 0 1000V50Z" fill="#FFFCF5"/>
<path d="M536.067 221.035L995.098 680.067L536.067 1139.1L77.0353 680.067L536.067 221.035Z" fill="#FF3B30"/>
<path d="M131.28 141.879H129.129L155.6 103H133.927L97.1986 158.092C92.7316 164.544 90.25 172.486 90.25 181.419C90.25 204.747 107.125 220.96 131.28 220.96C155.269 220.96 172.144 204.747 172.144 181.419C172.144 158.092 155.269 141.879 131.28 141.879ZM131.28 202.927C118.541 202.927 109.276 194.655 109.276 181.419C109.276 168.184 118.541 159.912 131.28 159.912C143.853 159.912 153.118 168.184 153.118 181.419C153.118 194.489 143.853 202.927 131.28 202.927Z" fill="#FF3B30"/>
<path d="M269.886 106.017L326.56 162.69L269.886 219.364L213.212 162.69L269.886 106.017Z" fill="#FF3B30"/>
</g>
<defs>
<clipPath id="clip0_63_7424">
<rect width="750" height="1050" fill="white"/>
</clipPath>
</defs>
</svg>
