<svg width="750" height="1050" viewBox="0 0 750 1050" fill="none" xmlns="http://www.w3.org/2000/svg">
<g clip-path="url(#clip0_63_6746)">
<path d="M0 50C0 22.3858 22.3858 0 50 0H700C727.614 0 750 22.3858 750 50V1000C750 1027.61 727.614 1050 700 1050H50C22.3858 1050 0 1027.61 0 1000V50Z" fill="#FFFCF5"/>
<path d="M997.563 552.826C997.563 418.335 888.545 309.317 754.095 309.317C658.455 309.317 575.764 364.42 535.945 444.584C496.042 364.406 413.421 309.317 317.756 309.317C183.32 309.317 74.2765 418.335 74.2765 552.826C74.2765 874.115 530.843 1049.97 530.843 1049.97C530.858 1049.95 997.563 871.878 997.563 552.826Z" fill="#FF3B30"/>
<path d="M131.28 141.879H129.129L155.6 103H133.927L97.1986 158.092C92.7316 164.544 90.25 172.486 90.25 181.419C90.25 204.747 107.125 220.96 131.28 220.96C155.269 220.96 172.144 204.747 172.144 181.419C172.144 158.092 155.269 141.879 131.28 141.879ZM131.28 202.927C118.541 202.927 109.276 194.655 109.276 181.419C109.276 168.184 118.541 159.912 131.28 159.912C143.853 159.912 153.118 168.184 153.118 181.419C153.118 194.489 143.853 202.927 131.28 202.927Z" fill="#FF3B30"/>
<path d="M326.864 146.981C326.864 130.376 313.404 116.916 296.805 116.916C284.997 116.916 274.787 123.719 269.871 133.617C264.944 123.717 254.744 116.916 242.932 116.916C226.335 116.916 212.872 130.376 212.872 146.981C212.872 186.648 269.241 208.359 269.241 208.359C269.243 208.358 326.864 186.372 326.864 146.981Z" fill="#FF3B30"/>
</g>
<defs>
<clipPath id="clip0_63_6746">
<rect width="750" height="1050" fill="white"/>
</clipPath>
</defs>
</svg>
