<svg width="750" height="1050" viewBox="0 0 750 1050" fill="none" xmlns="http://www.w3.org/2000/svg">
<g clip-path="url(#clip0_63_7200)">
<path d="M0 50C0 22.3858 22.3858 0 50 0H700C727.614 0 750 22.3858 750 50V1000C750 1027.61 727.614 1050 700 1050H50C22.3858 1050 0 1027.61 0 1000V50Z" fill="#FFFCF5"/>
<path d="M754.341 536.834C750.935 536.834 747.515 536.92 744.167 537.078C752.2 514.174 756.625 489.575 756.625 463.97C756.625 342.022 657.753 243.105 535.776 243.105C413.784 243.105 314.912 342.022 314.912 463.97C314.912 489.575 319.323 514.173 327.355 537.078C323.993 536.92 320.602 536.834 317.196 536.834C195.205 536.834 96.3471 635.707 96.3471 757.639C96.3471 879.631 195.205 978.489 317.196 978.489C389.128 978.489 452.912 944.032 493.217 890.795C469.12 984.179 437.077 1081.46 402.393 1112.84H669.108C634.465 1081.47 602.466 984.319 578.325 890.968C618.659 944.088 682.468 978.474 754.33 978.474C876.252 978.474 975.15 879.616 975.15 757.625C975.165 635.703 876.263 536.834 754.345 536.834H754.341ZM545.935 684.53C545.605 685.565 544.024 684.573 544.024 684.573C544.656 684.573 545.303 684.573 545.935 684.53Z" fill="#1C1C1E"/>
<path d="M154.486 159.599C162.408 154.483 167.689 146.231 167.689 135.173C167.689 112.893 150.195 102 131.05 102C111.74 102 94.4109 112.893 94.4109 135.173C94.4109 146.231 99.6923 154.483 107.449 159.599C96.8866 165.541 90.45 175.608 90.45 187.656C90.45 209.112 106.954 221.82 131.05 221.82C155.146 221.82 171.485 209.112 171.485 187.656C171.485 175.443 165.214 165.541 154.486 159.599ZM131.05 119.99C140.623 119.99 148.71 125.271 148.71 135.999C148.71 146.231 140.623 152.008 131.05 152.008C121.313 152.008 113.391 146.231 113.391 135.999C113.391 125.271 121.313 119.99 131.05 119.99ZM131.05 203.83C118.507 203.83 109.43 197.559 109.43 185.841C109.43 173.958 118.507 167.851 131.05 167.851C143.428 167.851 152.505 173.958 152.505 185.841C152.505 197.559 143.428 203.83 131.05 203.83Z" fill="#1C1C1E"/>
<path d="M295.875 143.905C295.455 143.905 295.034 143.915 294.622 143.935C295.611 141.114 296.156 138.084 296.156 134.93C296.156 119.911 283.979 107.728 268.955 107.728C253.93 107.728 241.753 119.911 241.753 134.93C241.753 138.084 242.296 141.114 243.285 143.935C242.871 143.915 242.453 143.905 242.034 143.905C227.009 143.905 214.833 156.082 214.833 171.1C214.833 186.125 227.009 198.301 242.034 198.301C250.893 198.301 258.749 194.057 263.713 187.5C260.746 199.002 256.799 210.983 252.527 214.848H285.377C281.11 210.985 277.169 199.019 274.196 187.522C279.164 194.064 287.023 198.299 295.874 198.299C310.89 198.299 323.071 186.123 323.071 171.098C323.073 156.082 310.891 143.905 295.875 143.905H295.875ZM270.207 162.096C270.166 162.223 269.971 162.101 269.971 162.101C270.049 162.101 270.129 162.101 270.207 162.096Z" fill="#1C1C1E"/>
</g>
<defs>
<clipPath id="clip0_63_7200">
<rect width="750" height="1050" fill="white"/>
</clipPath>
</defs>
</svg>
