<svg width="750" height="1050" viewBox="0 0 750 1050" fill="none" xmlns="http://www.w3.org/2000/svg">
<g clip-path="url(#clip0_157_5643)">
<path fill-rule="evenodd" clip-rule="evenodd" d="M700 16H50C31.2223 16 16 31.2223 16 50V1000C16 1018.78 31.2223 1034 50 1034H700C718.778 1034 734 1018.78 734 1000V50C734 31.2223 718.778 16 700 16ZM50 0C22.3858 0 0 22.3858 0 50V1000C0 1027.61 22.3858 1050 50 1050H700C727.614 1050 750 1027.61 750 1000V50C750 22.3858 727.614 0 700 0H50Z" fill="black"/>
<path d="M542.667 479.265C542.667 430.516 503.151 391 454.416 391C419.749 391 389.776 410.973 375.343 440.031C360.879 410.968 330.931 391 296.255 391C247.525 391 208 430.516 208 479.265C208 595.724 373.493 659.465 373.493 659.465C373.499 659.46 542.667 594.913 542.667 479.265Z" fill="#1C1C1E"/>
</g>
<defs>
<clipPath id="clip0_157_5643">
<rect width="750" height="1050" fill="white"/>
</clipPath>
</defs>
</svg>
