<svg width="750" height="1050" viewBox="0 0 750 1050" fill="none" xmlns="http://www.w3.org/2000/svg">
<g clip-path="url(#clip0_63_7423)">
<path d="M0 50C0 22.3858 22.3858 0 50 0H700C727.614 0 750 22.3858 750 50V1000C750 1027.61 727.614 1050 700 1050H50C22.3858 1050 0 1027.61 0 1000V50Z" fill="#FFFCF5"/>
<path d="M536.067 221.035L995.098 680.067L536.067 1139.1L77.0354 680.067L536.067 221.035Z" fill="#FF3B30"/>
<path d="M131.383 146.677H116.824L118.81 120.868H165.795V103H101.273L96.806 165.206H130.556C143.13 165.206 151.733 172.155 151.733 183.736C151.733 195.317 143.13 202.431 130.225 202.431C118.148 202.431 110.207 196.971 107.229 186.714L90.8501 196.144C96.9714 212.853 112.688 220.96 130.225 220.96C151.567 220.96 170.758 208.056 170.758 183.736C170.758 159.581 152.394 146.677 131.383 146.677Z" fill="#FF3B30"/>
<path d="M268.501 106.017L325.175 162.69L268.501 219.364L211.827 162.69L268.501 106.017Z" fill="#FF3B30"/>
</g>
<defs>
<clipPath id="clip0_63_7423">
<rect width="750" height="1050" fill="white"/>
</clipPath>
</defs>
</svg>
