<svg width="750" height="1050" viewBox="0 0 750 1050" fill="none" xmlns="http://www.w3.org/2000/svg">
<g clip-path="url(#clip0_63_7203)">
<path d="M0 50C0 22.3858 22.3858 0 50 0H700C727.614 0 750 22.3858 750 50V1000C750 1027.61 727.614 1050 700 1050H50C22.3858 1050 0 1027.61 0 1000V50Z" fill="#FFFCF5"/>
<path d="M128.925 220.96C151.094 220.96 168.796 208.386 168.796 183.736V103H149.77V183.736C149.77 195.647 142.325 202.431 129.09 202.431C118.502 202.431 111.884 198.46 108.079 190.188L91.7002 199.783C98.4833 213.846 112.05 220.96 128.925 220.96Z" fill="#1C1C1E"/>
<path d="M293.487 145.006C293.067 145.006 292.645 145.017 292.231 145.036C293.223 142.208 293.769 139.171 293.769 136.01C293.769 120.954 281.562 108.741 266.502 108.741C251.441 108.741 239.234 120.954 239.234 136.01C239.234 139.171 239.778 142.208 240.77 145.036C240.355 145.017 239.936 145.006 239.516 145.006C224.454 145.006 212.249 157.213 212.249 172.268C212.249 187.329 224.454 199.535 239.516 199.535C248.397 199.535 256.272 195.28 261.248 188.708C258.273 200.237 254.317 212.247 250.034 216.122H282.964C278.687 212.249 274.736 200.254 271.756 188.729C276.735 195.287 284.614 199.533 293.486 199.533C308.539 199.533 320.749 187.327 320.749 172.266C320.751 157.213 308.54 145.006 293.488 145.006H293.487ZM267.757 163.241C267.716 163.369 267.521 163.247 267.521 163.247C267.599 163.247 267.679 163.247 267.757 163.241Z" fill="#1C1C1E"/>
<g clip-path="url(#clip1_63_7203)">
<path d="M92.999 366.541L215.985 905.93H1360.54L1471.35 366.541C1017.17 293.484 547.218 293.484 93.0129 366.541H92.999Z" fill="#1C1C1E"/>
<path d="M214.759 1164.11H1341.09L1349.62 966.846H215.987L214.759 1164.11Z" fill="#1C1C1E"/>
</g>
</g>
<defs>
<clipPath id="clip0_63_7203">
<rect width="750" height="1050" fill="white"/>
</clipPath>
<clipPath id="clip1_63_7203">
<rect width="1379" height="1379" fill="white" transform="translate(93 50)"/>
</clipPath>
</defs>
</svg>
