<svg width="750" height="1050" viewBox="0 0 750 1050" fill="none" xmlns="http://www.w3.org/2000/svg">
<g clip-path="url(#clip0_63_7197)">
<path d="M0 50C0 22.3858 22.3858 0 50 0H700C727.614 0 750 22.3858 750 50V1000C750 1027.61 727.614 1050 700 1050H50C22.3858 1050 0 1027.61 0 1000V50Z" fill="#FFFCF5"/>
<path d="M754.341 536.834C750.935 536.834 747.515 536.92 744.167 537.078C752.2 514.174 756.625 489.575 756.625 463.97C756.625 342.022 657.753 243.105 535.776 243.105C413.784 243.105 314.912 342.022 314.912 463.97C314.912 489.575 319.323 514.173 327.355 537.078C323.993 536.92 320.602 536.834 317.197 536.834C195.205 536.834 96.3472 635.707 96.3472 757.639C96.3472 879.631 195.205 978.489 317.197 978.489C389.128 978.489 452.912 944.032 493.217 890.795C469.12 984.179 437.077 1081.46 402.393 1112.84H669.108C634.465 1081.47 602.466 984.319 578.325 890.968C618.659 944.088 682.468 978.474 754.33 978.474C876.252 978.474 975.15 879.616 975.15 757.625C975.165 635.703 876.263 536.834 754.345 536.834H754.341ZM545.935 684.53C545.605 685.565 544.024 684.573 544.024 684.573C544.657 684.573 545.303 684.573 545.935 684.53Z" fill="#1C1C1E"/>
<path d="M131.383 146.677H116.824L118.81 120.868H165.795V103H101.273L96.806 165.206H130.556C143.13 165.206 151.733 172.155 151.733 183.736C151.733 195.317 143.13 202.431 130.225 202.431C118.148 202.431 110.207 196.971 107.229 186.714L90.8501 196.144C96.9714 212.853 112.688 220.96 130.225 220.96C151.567 220.96 170.758 208.056 170.758 183.736C170.758 159.581 152.394 146.677 131.383 146.677Z" fill="#1C1C1E"/>
<path d="M295.45 145.006C295.029 145.006 294.607 145.017 294.194 145.036C295.186 142.208 295.732 139.171 295.732 136.01C295.732 120.954 283.525 108.741 268.465 108.741C253.403 108.741 241.196 120.954 241.196 136.01C241.196 139.171 241.741 142.208 242.733 145.036C242.317 145.017 241.899 145.006 241.478 145.006C226.417 145.006 214.211 157.213 214.211 172.268C214.211 187.329 226.417 199.535 241.478 199.535C250.359 199.535 258.234 195.28 263.211 188.708C260.235 200.237 256.279 212.247 251.997 216.122H284.927C280.65 212.249 276.699 200.254 273.718 188.729C278.698 195.287 286.576 199.533 295.449 199.533C310.502 199.533 322.712 187.327 322.712 172.266C322.714 157.213 310.503 145.006 295.45 145.006H295.45ZM269.719 163.241C269.679 163.369 269.483 163.247 269.483 163.247C269.561 163.247 269.641 163.247 269.719 163.241Z" fill="#1C1C1E"/>
</g>
<defs>
<clipPath id="clip0_63_7197">
<rect width="750" height="1050" fill="white"/>
</clipPath>
</defs>
</svg>
