<svg width="750" height="1050" viewBox="0 0 750 1050" fill="none" xmlns="http://www.w3.org/2000/svg">
<g clip-path="url(#clip0_63_6744)">
<path d="M0 50C0 22.3858 22.3858 0 50 0H700C727.614 0 750 22.3858 750 50V1000C750 1027.61 727.614 1050 700 1050H50C22.3858 1050 0 1027.61 0 1000V50Z" fill="#FFFCF5"/>
<path d="M997.563 552.826C997.563 418.335 888.545 309.317 754.095 309.317C658.455 309.317 575.764 364.42 535.945 444.584C496.042 364.406 413.42 309.317 317.755 309.317C183.32 309.317 74.2764 418.335 74.2764 552.826C74.2764 874.115 530.843 1049.97 530.843 1049.97C530.858 1049.95 997.563 871.878 997.563 552.826Z" fill="#FF3B30"/>
<path d="M177.563 181.455H164.294V151.269H145.055V181.455H108.732L148.704 104H127.972L88 181.455V199.202H145.055V220.1H164.294V199.202H177.563V181.455Z" fill="#FF3B30"/>
<path d="M332.672 146.433C332.672 129.787 319.178 116.293 302.537 116.293C290.699 116.293 280.464 123.113 275.536 133.035C270.597 123.111 260.37 116.293 248.529 116.293C231.89 116.293 218.393 129.787 218.393 146.433C218.393 186.2 274.904 207.966 274.904 207.966C274.906 207.964 332.672 185.923 332.672 146.433Z" fill="#FF3B30"/>
</g>
<defs>
<clipPath id="clip0_63_6744">
<rect width="750" height="1050" fill="white"/>
</clipPath>
</defs>
</svg>
