<svg width="750" height="1050" viewBox="0 0 750 1050" fill="none" xmlns="http://www.w3.org/2000/svg">
<g clip-path="url(#clip0_63_7204)">
<path d="M0 50C0 22.3858 22.3858 0 50 0H700C727.614 0 750 22.3858 750 50V1000C750 1027.61 727.614 1050 700 1050H50C22.3858 1050 0 1027.61 0 1000V50Z" fill="#FFFCF5"/>
<path d="M199.222 159.611C199.222 126.275 172.619 100 139.611 100C106.767 100 80 126.275 80 159.611C80 192.947 106.767 219.222 139.611 219.222C150.778 219.222 161.288 216.102 170.32 210.847L182.964 223.82L196.266 211.832L184.114 199.352C193.474 189.006 199.222 175.047 199.222 159.611ZM139.611 200.83C116.949 200.83 98.885 183.258 98.885 159.611C98.885 135.964 116.949 118.392 139.611 118.392C162.273 118.392 180.337 135.964 180.337 159.611C180.337 169.957 176.888 178.989 171.141 186.05L149.136 163.552L135.834 175.54L156.854 197.053C151.599 199.516 145.851 200.83 139.611 200.83Z" fill="#1C1C1E"/>
<path d="M322.99 144.981C322.573 144.981 322.154 144.991 321.744 145.011C322.728 142.204 323.27 139.189 323.27 136.051C323.27 121.107 311.153 108.984 296.205 108.984C281.255 108.984 269.138 121.107 269.138 136.051C269.138 139.189 269.679 142.204 270.663 145.011C270.251 144.991 269.836 144.981 269.418 144.981C254.468 144.981 242.353 157.098 242.353 172.041C242.353 186.991 254.468 199.106 269.418 199.106C278.233 199.106 286.05 194.883 290.99 188.359C288.036 199.803 284.11 211.724 279.859 215.57H312.545C308.3 211.726 304.378 199.82 301.42 188.38C306.362 194.89 314.182 199.104 322.989 199.104C337.931 199.104 350.051 186.989 350.051 172.039C350.052 157.097 337.932 144.981 322.991 144.981H322.99ZM297.45 163.081C297.41 163.208 297.216 163.086 297.216 163.086C297.294 163.086 297.373 163.086 297.45 163.081Z" fill="#1C1C1E"/>
<path d="M1026.1 817.008C1024.16 827.651 1015.46 836.35 1003.87 837.322C993.223 839.265 982.58 831.515 979.688 820.872C976.795 813.144 917.797 635.173 1075.43 430.158C1019.35 428.215 911.989 454.336 824.948 629.392C820.112 641.006 807.548 645.842 795.934 641.956C784.319 637.12 777.563 625.506 779.484 613.913C782.377 604.242 828.812 384.693 671.155 310.241C513.524 384.721 559.935 604.242 562.825 613.913C564.768 625.528 557.99 637.12 546.375 641.956C534.761 645.82 522.197 640.984 517.362 629.392C430.32 454.336 323.936 428.241 266.881 430.158C424.512 635.2 365.539 813.146 362.621 820.872C359.729 831.515 349.086 839.243 338.443 837.322C326.829 836.35 318.129 827.651 316.208 817.008C292.03 661.295 167.276 635.199 78.2896 639.062C173.057 721.268 173.057 858.611 169.194 917.583H1173.07C1169.21 858.583 1169.21 721.268 1263.98 639.062C1175.03 635.198 1050.28 661.297 1026.1 817.008ZM764.977 765.759L688.579 842.156C683.744 846.992 677.937 849.885 671.18 849.885C664.401 849.885 658.616 846.992 653.781 842.156L577.383 765.759C569.655 758.031 567.712 746.416 572.547 737.717L649.918 583.949C657.646 567.499 684.739 567.499 692.467 583.949L769.837 737.717C774.651 746.416 772.705 758.009 764.977 765.759Z" fill="#1C1C1E"/>
<path d="M132.419 965.945H1209.8V1095.53H132.419V965.945Z" fill="#1C1C1E"/>
</g>
<defs>
<clipPath id="clip0_63_7204">
<rect width="750" height="1050" fill="white"/>
</clipPath>
</defs>
</svg>
