<svg width="750" height="1050" viewBox="0 0 750 1050" fill="none" xmlns="http://www.w3.org/2000/svg">
<g clip-path="url(#clip0_63_6971)">
<path d="M0 50C0 22.3858 22.3858 0 50 0H700C727.614 0 750 22.3858 750 50V1000C750 1027.61 727.614 1050 700 1050H50C22.3858 1050 0 1027.61 0 1000V50Z" fill="#FFFCF5"/>
<path d="M540.444 248.623C540.444 248.623 74.2764 426.538 74.2764 745.175C74.2764 879.522 183.176 988.411 317.513 988.411C382.661 988.411 441.803 962.705 485.44 921.007C462.694 1003.57 434.101 1083.39 403.496 1111.12H667.221C636.63 1083.39 608.035 1003.57 585.277 921.007C628.899 962.721 688.045 988.411 753.249 988.411C887.556 988.411 996.441 879.522 996.441 745.175C996.484 424.276 540.462 248.623 540.462 248.623H540.444Z" fill="#1C1C1E"/>
<path d="M131.383 146.677H116.824L118.81 120.868H165.795V103H101.273L96.806 165.206H130.556C143.13 165.206 151.733 172.155 151.733 183.736C151.733 195.317 143.13 202.431 130.225 202.431C118.148 202.431 110.207 196.971 107.229 186.714L90.8501 196.144C96.9714 212.853 112.688 220.96 130.225 220.96C151.567 220.96 170.758 208.056 170.758 183.736C170.758 159.581 152.394 146.677 131.383 146.677Z" fill="#1C1C1E"/>
<path d="M269.041 109.423C269.041 109.423 211.486 131.389 211.486 170.729C211.486 187.316 224.932 200.76 241.517 200.76C249.561 200.76 256.863 197.586 262.25 192.438C259.442 202.632 255.912 212.487 252.133 215.911H284.694C280.917 212.487 277.386 202.632 274.577 192.438C279.962 197.588 287.265 200.76 295.315 200.76C311.897 200.76 325.341 187.316 325.341 170.729C325.346 131.11 269.044 109.423 269.044 109.423H269.041Z" fill="#1C1C1E"/>
</g>
<defs>
<clipPath id="clip0_63_6971">
<rect width="750" height="1050" fill="white"/>
</clipPath>
</defs>
</svg>
