<svg width="750" height="1050" viewBox="0 0 750 1050" fill="none" xmlns="http://www.w3.org/2000/svg">
<g clip-path="url(#clip0_63_6973)">
<path d="M0 50C0 22.3858 22.3858 0 50 0H700C727.614 0 750 22.3858 750 50V1000C750 1027.61 727.614 1050 700 1050H50C22.3858 1050 0 1027.61 0 1000V50Z" fill="#FFFCF5"/>
<path d="M540.444 248.623C540.444 248.623 74.2765 426.538 74.2765 745.175C74.2765 879.522 183.176 988.411 317.513 988.411C382.661 988.411 441.803 962.705 485.441 921.007C462.695 1003.57 434.101 1083.39 403.496 1111.12H667.221C636.63 1083.39 608.035 1003.57 585.277 921.007C628.899 962.721 688.045 988.411 753.249 988.411C887.556 988.411 996.441 879.522 996.441 745.175C996.484 424.276 540.462 248.623 540.462 248.623H540.444Z" fill="#1C1C1E"/>
<path d="M92.75 104V122.244H145.824L105.687 220.1H125.756L166.556 120.586V104H92.75Z" fill="#1C1C1E"/>
<path d="M265.086 108.78C265.086 108.78 207.387 130.801 207.387 170.24C207.387 186.869 220.866 200.347 237.493 200.347C245.557 200.347 252.877 197.165 258.278 192.004C255.463 202.223 251.923 212.103 248.135 215.535H280.778C276.991 212.103 273.452 202.223 270.635 192.004C276.034 197.167 283.355 200.347 291.426 200.347C308.049 200.347 321.527 186.869 321.527 170.24C321.532 130.521 265.088 108.78 265.088 108.78H265.086Z" fill="#1C1C1E"/>
</g>
<defs>
<clipPath id="clip0_63_6973">
<rect width="750" height="1050" fill="white"/>
</clipPath>
</defs>
</svg>
