<svg width="750" height="1050" viewBox="0 0 750 1050" fill="none" xmlns="http://www.w3.org/2000/svg">
<g clip-path="url(#clip0_63_7425)">
<path d="M0 50C0 22.3858 22.3858 0 50 0H700C727.614 0 750 22.3858 750 50V1000C750 1027.61 727.614 1050 700 1050H50C22.3858 1050 0 1027.61 0 1000V50Z" fill="#FFFCF5"/>
<path d="M536.067 221.035L995.098 680.067L536.067 1139.1L77.0353 680.067L536.067 221.035Z" fill="#FF3B30"/>
<path d="M92.75 104V122.244H145.824L105.687 220.1H125.756L166.556 120.586V104H92.75Z" fill="#FF3B30"/>
<path d="M264.544 105.366L321.36 162.182L264.544 218.999L207.728 162.182L264.544 105.366Z" fill="#FF3B30"/>
</g>
<defs>
<clipPath id="clip0_63_7425">
<rect width="750" height="1050" fill="white"/>
</clipPath>
</defs>
</svg>
