<svg width="750" height="1050" viewBox="0 0 750 1050" fill="none" xmlns="http://www.w3.org/2000/svg">
<g clip-path="url(#clip0_63_6974)">
<path d="M0 50C0 22.3858 22.3858 0 50 0H700C727.614 0 750 22.3858 750 50V1000C750 1027.61 727.614 1050 700 1050H50C22.3858 1050 0 1027.61 0 1000V50Z" fill="#FFFCF5"/>
<path d="M540.444 248.623C540.444 248.623 74.2765 426.538 74.2765 745.175C74.2765 879.522 183.176 988.411 317.513 988.411C382.661 988.411 441.803 962.705 485.441 921.007C462.695 1003.57 434.101 1083.39 403.496 1111.12H667.221C636.63 1083.39 608.035 1003.57 585.277 921.007C628.899 962.721 688.045 988.411 753.249 988.411C887.556 988.411 996.441 879.522 996.441 745.175C996.484 424.276 540.462 248.623 540.462 248.623H540.444Z" fill="#1C1C1E"/>
<path d="M154.486 159.599C162.408 154.483 167.689 146.231 167.689 135.173C167.689 112.893 150.195 102 131.05 102C111.74 102 94.4109 112.893 94.4109 135.173C94.4109 146.231 99.6923 154.483 107.449 159.599C96.8866 165.541 90.45 175.608 90.45 187.656C90.45 209.112 106.954 221.82 131.05 221.82C155.146 221.82 171.485 209.112 171.485 187.656C171.485 175.443 165.214 165.541 154.486 159.599ZM131.05 119.99C140.623 119.99 148.71 125.271 148.71 135.999C148.71 146.231 140.623 152.008 131.05 152.008C121.313 152.008 113.391 146.231 113.391 135.999C113.391 125.271 121.313 119.99 131.05 119.99ZM131.05 203.83C118.507 203.83 109.43 197.559 109.43 185.841C109.43 173.958 118.507 167.851 131.05 167.851C143.428 167.851 152.505 173.958 152.505 185.841C152.505 197.559 143.428 203.83 131.05 203.83Z" fill="#1C1C1E"/>
<path d="M269.53 108.407C269.53 108.407 212.115 130.32 212.115 169.565C212.115 186.112 225.527 199.523 242.073 199.523C250.097 199.523 257.381 196.357 262.756 191.222C259.954 201.39 256.432 211.222 252.663 214.637H285.145C281.377 211.222 277.855 201.391 275.052 191.222C280.425 196.359 287.71 199.523 295.74 199.523C312.282 199.523 325.693 186.112 325.693 169.565C325.698 130.041 269.533 108.407 269.533 108.407H269.53Z" fill="#1C1C1E"/>
</g>
<defs>
<clipPath id="clip0_63_6974">
<rect width="750" height="1050" fill="white"/>
</clipPath>
</defs>
</svg>
