<svg width="750" height="1050" viewBox="0 0 750 1050" fill="none" xmlns="http://www.w3.org/2000/svg">
<g clip-path="url(#clip0_63_6747)">
<path d="M0 50C0 22.3858 22.3858 0 50 0H700C727.614 0 750 22.3858 750 50V1000C750 1027.61 727.614 1050 700 1050H50C22.3858 1050 0 1027.61 0 1000V50Z" fill="#FFFCF5"/>
<path d="M997.563 552.826C997.563 418.335 888.545 309.317 754.095 309.317C658.455 309.317 575.764 364.42 535.945 444.584C496.042 364.406 413.421 309.317 317.756 309.317C183.32 309.317 74.2765 418.335 74.2765 552.826C74.2765 874.115 530.843 1049.97 530.843 1049.97C530.858 1049.95 997.563 871.878 997.563 552.826Z" fill="#FF3B30"/>
<path d="M92.75 104V122.244H145.824L105.687 220.1H125.756L166.556 120.586V104H92.75Z" fill="#FF3B30"/>
<path d="M321.665 146.433C321.665 129.787 308.172 116.293 291.53 116.293C279.693 116.293 269.458 123.113 264.529 133.035C259.59 123.111 249.364 116.293 237.523 116.293C220.883 116.293 207.387 129.787 207.387 146.433C207.387 186.2 263.898 207.966 263.898 207.966C263.899 207.964 321.665 185.923 321.665 146.433Z" fill="#FF3B30"/>
</g>
<defs>
<clipPath id="clip0_63_6747">
<rect width="750" height="1050" fill="white"/>
</clipPath>
</defs>
</svg>
