<svg width="750" height="1050" viewBox="0 0 750 1050" fill="none" xmlns="http://www.w3.org/2000/svg">
<g clip-path="url(#clip0_63_6742)">
<path d="M0 50C0 22.3858 22.3858 0 50 0H700C727.614 0 750 22.3858 750 50V1000C750 1027.61 727.614 1050 700 1050H50C22.3858 1050 0 1027.61 0 1000V50Z" fill="#FFFCF5"/>
<path d="M997.563 552.826C997.563 418.335 888.545 309.317 754.095 309.317C658.455 309.317 575.764 364.42 535.945 444.584C496.042 364.406 413.42 309.317 317.755 309.317C183.32 309.317 74.2764 418.335 74.2764 552.826C74.2764 874.115 530.843 1049.97 530.843 1049.97C530.858 1049.95 997.563 871.878 997.563 552.826Z" fill="#FF3B30"/>
<path d="M92.181 220.96H168.45V202.596H120.472L146.611 176.456C157.696 165.206 166.299 153.129 166.299 138.735C166.299 115.739 148.266 103 129.24 103C113.854 103 99.295 110.61 91.8501 126.493L107.898 135.923C112.365 126.658 119.81 121.529 129.405 121.529C139.332 121.529 147.273 127.816 147.273 139.397C147.273 148.166 140.821 156.603 132.549 164.875L92.181 206.07V220.96Z" fill="#FF3B30"/>
<path d="M323.17 146.981C323.17 130.376 309.711 116.916 293.111 116.916C281.303 116.916 271.093 123.719 266.177 133.617C261.251 123.717 251.05 116.916 239.239 116.916C222.641 116.916 209.178 130.376 209.178 146.981C209.178 186.648 265.547 208.359 265.547 208.359C265.549 208.358 323.17 186.372 323.17 146.981Z" fill="#FF3B30"/>
</g>
<defs>
<clipPath id="clip0_63_6742">
<rect width="750" height="1050" fill="white"/>
</clipPath>
</defs>
</svg>
