<svg width="750" height="1050" viewBox="0 0 750 1050" fill="none" xmlns="http://www.w3.org/2000/svg">
<g clip-path="url(#clip0_63_6970)">
<path d="M0 50C0 22.3858 22.3858 0 50 0H700C727.614 0 750 22.3858 750 50V1000C750 1027.61 727.614 1050 700 1050H50C22.3858 1050 0 1027.61 0 1000V50Z" fill="#FFFCF5"/>
<path d="M540.444 248.623C540.444 248.623 74.2764 426.538 74.2764 745.175C74.2764 879.522 183.176 988.411 317.513 988.411C382.661 988.411 441.803 962.705 485.44 921.007C462.694 1003.57 434.101 1083.39 403.496 1111.12H667.221C636.63 1083.39 608.035 1003.57 585.277 921.007C628.899 962.721 688.045 988.411 753.249 988.411C887.556 988.411 996.441 879.522 996.441 745.175C996.484 424.276 540.462 248.623 540.462 248.623H540.444Z" fill="#1C1C1E"/>
<path d="M177.563 181.455H164.294V151.269H145.055V181.455H108.732L148.704 104H127.972L88 181.455V199.202H145.055V220.1H164.294V199.202H177.563V181.455Z" fill="#1C1C1E"/>
<path d="M276.092 108.78C276.092 108.78 218.393 130.801 218.393 170.24C218.393 186.869 231.872 200.347 248.499 200.347C256.563 200.347 263.883 197.165 269.284 192.004C266.469 202.223 262.93 212.103 259.142 215.535H291.784C287.998 212.103 284.459 202.223 281.642 192.004C287.041 197.167 294.362 200.347 302.432 200.347C319.056 200.347 332.533 186.869 332.533 170.24C332.538 130.521 276.095 108.78 276.095 108.78H276.092Z" fill="#1C1C1E"/>
</g>
<defs>
<clipPath id="clip0_63_6970">
<rect width="750" height="1050" fill="white"/>
</clipPath>
</defs>
</svg>
