<svg width="750" height="1050" viewBox="0 0 750 1050" fill="none" xmlns="http://www.w3.org/2000/svg">
<g clip-path="url(#clip0_63_6969)">
<path d="M0 50C0 22.3858 22.3858 0 50 0H700C727.614 0 750 22.3858 750 50V1000C750 1027.61 727.614 1050 700 1050H50C22.3858 1050 0 1027.61 0 1000V50Z" fill="#FFFCF5"/>
<path d="M540.444 248.623C540.444 248.623 74.2764 426.538 74.2764 745.175C74.2764 879.522 183.176 988.411 317.513 988.411C382.661 988.411 441.803 962.705 485.44 921.007C462.694 1003.57 434.101 1083.39 403.496 1111.12H667.221C636.63 1083.39 608.035 1003.57 585.277 921.007C628.899 962.721 688.045 988.411 753.249 988.411C887.556 988.411 996.441 879.522 996.441 745.175C996.484 424.276 540.462 248.623 540.462 248.623H540.444Z" fill="#1C1C1E"/>
<path d="M142.122 150.316L165.614 119.213V103H94.4743V120.868H142.949L117.967 153.791L125.577 165.206H129.879C142.949 165.206 151.386 172.155 151.386 183.736C151.386 195.317 142.949 202.431 129.879 202.431C118.298 202.431 110.522 197.302 107.213 187.541L91 196.971C97.4522 213.184 112.838 220.96 129.879 220.96C151.221 220.96 170.412 208.056 170.412 183.736C170.412 165.702 158.004 154.122 142.122 150.316Z" fill="#1C1C1E"/>
<path d="M268.695 109.423C268.695 109.423 211.14 131.389 211.14 170.729C211.14 187.316 224.585 200.76 241.171 200.76C249.214 200.76 256.516 197.586 261.904 192.438C259.096 202.632 255.565 212.487 251.787 215.911H284.347C280.57 212.487 277.04 202.632 274.23 192.438C279.616 197.588 286.918 200.76 294.969 200.76C311.551 200.76 324.994 187.316 324.994 170.729C324.999 131.11 268.697 109.423 268.697 109.423H268.695Z" fill="#1C1C1E"/>
</g>
<defs>
<clipPath id="clip0_63_6969">
<rect width="750" height="1050" fill="white"/>
</clipPath>
</defs>
</svg>
