<svg width="750" height="1050" viewBox="0 0 750 1050" fill="none" xmlns="http://www.w3.org/2000/svg">
<g clip-path="url(#clip0_63_6741)">
<path d="M0 50C0 22.3858 22.3858 0 50 0H700C727.614 0 750 22.3858 750 50V1000C750 1027.61 727.614 1050 700 1050H50C22.3858 1050 0 1027.61 0 1000V50Z" fill="#FFFCF5"/>
<path d="M997.563 552.826C997.563 418.335 888.545 309.317 754.095 309.317C658.455 309.317 575.764 364.42 535.945 444.584C496.042 364.406 413.42 309.317 317.755 309.317C183.32 309.317 74.2764 418.335 74.2764 552.826C74.2764 874.115 530.843 1049.97 530.843 1049.97C530.858 1049.95 997.563 871.878 997.563 552.826Z" fill="#FF3B30"/>
<path d="M169.412 220.1H189.978L148.016 104H125.128L83 220.1H103.732L111.859 196.714H161.285L169.412 220.1ZM118.162 178.802L136.572 126.391L154.982 178.802H118.162Z" fill="#FF3B30"/>
<path d="M345.087 146.433C345.087 129.787 331.593 116.293 314.952 116.293C303.114 116.293 292.879 123.113 287.951 133.035C283.012 123.111 272.785 116.293 260.944 116.293C244.305 116.293 230.808 129.787 230.808 146.433C230.808 186.2 287.319 207.966 287.319 207.966C287.321 207.964 345.087 185.923 345.087 146.433Z" fill="#FF3B30"/>
</g>
<defs>
<clipPath id="clip0_63_6741">
<rect width="750" height="1050" fill="white"/>
</clipPath>
</defs>
</svg>
