<svg width="750" height="1050" viewBox="0 0 750 1050" fill="none" xmlns="http://www.w3.org/2000/svg">
<g clip-path="url(#clip0_63_6750)">
<path d="M0 50C0 22.3858 22.3858 0 50 0H700C727.614 0 750 22.3858 750 50V1000C750 1027.61 727.614 1050 700 1050H50C22.3858 1050 0 1027.61 0 1000V50Z" fill="#FFFCF5"/>
<path d="M997.563 552.826C997.563 418.335 888.545 309.317 754.095 309.317C658.455 309.317 575.764 364.42 535.945 444.584C496.042 364.406 413.421 309.317 317.756 309.317C183.32 309.317 74.2765 418.335 74.2765 552.826C74.2765 874.115 530.843 1049.97 530.843 1049.97C530.858 1049.95 997.563 871.878 997.563 552.826Z" fill="#FF3B30"/>
<path d="M110.368 104.146L80 114.873L84.6212 131.047L107.892 124.446V219.674H126.872V104.146H110.368Z" fill="#FF3B30"/>
<path d="M191.249 221.82C220.297 221.82 236.636 197.559 236.636 161.91C236.636 126.261 220.297 102 191.249 102C162.202 102 145.863 126.261 145.863 161.91C145.863 197.559 162.202 221.82 191.249 221.82ZM191.249 203.335C174.25 203.335 164.843 188.482 164.843 161.91C164.843 135.338 174.25 120.485 191.249 120.485C208.414 120.485 217.656 135.338 217.656 161.91C217.656 188.482 208.414 203.335 191.249 203.335Z" fill="#FF3B30"/>
<path d="M390.982 145.875C390.982 129.31 377.555 115.883 360.995 115.883C349.216 115.883 339.031 122.67 334.127 132.543C329.212 122.668 319.036 115.883 307.254 115.883C290.696 115.883 277.266 129.31 277.266 145.875C277.266 185.446 333.499 207.105 333.499 207.105C333.5 207.103 390.982 185.171 390.982 145.875Z" fill="#FF3B30"/>
</g>
<defs>
<clipPath id="clip0_63_6750">
<rect width="750" height="1050" fill="white"/>
</clipPath>
</defs>
</svg>
