<svg width="750" height="1050" viewBox="0 0 750 1050" fill="none" xmlns="http://www.w3.org/2000/svg">
<g clip-path="url(#clip0_63_7198)">
<path d="M0 50C0 22.3858 22.3858 0 50 0H700C727.614 0 750 22.3858 750 50V1000C750 1027.61 727.614 1050 700 1050H50C22.3858 1050 0 1027.61 0 1000V50Z" fill="#FFFCF5"/>
<path d="M754.341 536.834C750.935 536.834 747.515 536.92 744.167 537.078C752.2 514.174 756.625 489.575 756.625 463.97C756.625 342.022 657.753 243.105 535.776 243.105C413.784 243.105 314.912 342.022 314.912 463.97C314.912 489.575 319.323 514.173 327.355 537.078C323.993 536.92 320.602 536.834 317.196 536.834C195.205 536.834 96.347 635.707 96.347 757.639C96.347 879.631 195.205 978.489 317.196 978.489C389.128 978.489 452.912 944.032 493.217 890.795C469.12 984.179 437.077 1081.46 402.393 1112.84H669.108C634.465 1081.47 602.466 984.319 578.325 890.968C618.659 944.088 682.468 978.474 754.33 978.474C876.252 978.474 975.15 879.616 975.15 757.625C975.164 635.703 876.263 536.834 754.345 536.834H754.341ZM545.935 684.53C545.605 685.565 544.024 684.573 544.024 684.573C544.656 684.573 545.303 684.573 545.935 684.53Z" fill="#1C1C1E"/>
<path d="M131.28 141.879H129.129L155.6 103H133.927L97.1986 158.092C92.7316 164.544 90.25 172.486 90.25 181.419C90.25 204.747 107.125 220.96 131.28 220.96C155.269 220.96 172.144 204.747 172.144 181.419C172.144 158.092 155.269 141.879 131.28 141.879ZM131.28 202.927C118.541 202.927 109.276 194.655 109.276 181.419C109.276 168.184 118.541 159.912 131.28 159.912C143.853 159.912 153.118 168.184 153.118 181.419C153.118 194.489 143.853 202.927 131.28 202.927Z" fill="#1C1C1E"/>
<path d="M296.835 145.006C296.415 145.006 295.992 145.017 295.579 145.036C296.571 142.208 297.117 139.171 297.117 136.01C297.117 120.954 284.91 108.741 269.85 108.741C254.789 108.741 242.581 120.954 242.581 136.01C242.581 139.171 243.126 142.208 244.118 145.036C243.703 145.017 243.284 145.006 242.864 145.006C227.802 145.006 215.597 157.213 215.597 172.268C215.597 187.329 227.802 199.535 242.864 199.535C251.744 199.535 259.62 195.28 264.596 188.708C261.621 200.237 257.664 212.247 253.382 216.122H286.312C282.035 212.249 278.084 200.254 275.103 188.729C280.083 195.287 287.961 199.533 296.834 199.533C311.887 199.533 324.097 187.327 324.097 172.266C324.099 157.213 311.888 145.006 296.836 145.006H296.835ZM271.105 163.241C271.064 163.369 270.869 163.247 270.869 163.247C270.947 163.247 271.026 163.247 271.105 163.241Z" fill="#1C1C1E"/>
</g>
<defs>
<clipPath id="clip0_63_7198">
<rect width="750" height="1050" fill="white"/>
</clipPath>
</defs>
</svg>
