<svg width="750" height="1050" viewBox="0 0 750 1050" fill="none" xmlns="http://www.w3.org/2000/svg">
<g clip-path="url(#clip0_63_7427)">
<path d="M0 50C0 22.3858 22.3858 0 50 0H700C727.614 0 750 22.3858 750 50V1000C750 1027.61 727.614 1050 700 1050H50C22.3858 1050 0 1027.61 0 1000V50Z" fill="#FFFCF5"/>
<path d="M536.067 221.035L995.098 680.067L536.067 1139.1L77.0353 680.067L536.067 221.035Z" fill="#FF3B30"/>
<path d="M172.144 142.541C172.144 119.213 155.269 103 131.28 103C107.291 103 90.25 119.213 90.25 142.541C90.25 165.868 107.291 182.081 131.28 182.081H133.265L106.794 220.96H128.632L165.195 165.868C169.662 159.416 172.144 151.474 172.144 142.541ZM109.276 142.541C109.276 129.305 118.706 121.033 131.28 121.033C143.853 121.033 153.118 129.305 153.118 142.541C153.118 155.776 143.853 164.048 131.28 164.048C118.706 164.048 109.276 155.61 109.276 142.541Z" fill="#FF3B30"/>
<path d="M269.886 106.017L326.56 162.69L269.886 219.364L213.212 162.69L269.886 106.017Z" fill="#FF3B30"/>
</g>
<defs>
<clipPath id="clip0_63_7427">
<rect width="750" height="1050" fill="white"/>
</clipPath>
</defs>
</svg>
