<svg width="750" height="1050" viewBox="0 0 750 1050" fill="none" xmlns="http://www.w3.org/2000/svg">
<g clip-path="url(#clip0_157_6807)">
<path fill-rule="evenodd" clip-rule="evenodd" d="M700 16H50C31.2223 16 16 31.2223 16 50V1000C16 1018.78 31.2223 1034 50 1034H700C718.778 1034 734 1018.78 734 1000V50C734 31.2223 718.778 16 700 16ZM50 0C22.3858 0 0 22.3858 0 50V1000C0 1027.61 22.3858 1050 50 1050H700C727.614 1050 750 1027.61 750 1000V50C750 22.3858 727.614 0 700 0H50Z" fill="black"/>
</g>
<defs>
<clipPath id="clip0_157_6807">
<rect width="750" height="1050" fill="white"/>
</clipPath>
</defs>
</svg>
