<svg width="750" height="1050" viewBox="0 0 750 1050" fill="none" xmlns="http://www.w3.org/2000/svg">
<g clip-path="url(#clip0_63_6978)">
<path d="M0 50C0 22.3858 22.3858 0 50 0H700C727.614 0 750 22.3858 750 50V1000C750 1027.61 727.614 1050 700 1050H50C22.3858 1050 0 1027.61 0 1000V50Z" fill="#FFFCF5"/>
<path d="M199.222 159.611C199.222 126.275 172.619 100 139.611 100C106.767 100 80 126.275 80 159.611C80 192.947 106.767 219.222 139.611 219.222C150.778 219.222 161.288 216.102 170.32 210.847L182.964 223.82L196.266 211.832L184.114 199.352C193.474 189.006 199.222 175.047 199.222 159.611ZM139.611 200.83C116.949 200.83 98.885 183.258 98.885 159.611C98.885 135.964 116.949 118.392 139.611 118.392C162.273 118.392 180.337 135.964 180.337 159.611C180.337 169.957 176.888 178.989 171.141 186.05L149.136 163.552L135.834 175.54L156.854 197.053C151.599 199.516 145.851 200.83 139.611 200.83Z" fill="#1C1C1E"/>
<path d="M296.777 109.66C296.777 109.66 239.648 131.464 239.648 170.513C239.648 186.977 252.994 200.321 269.457 200.321C277.441 200.321 284.689 197.171 290.037 192.061C287.249 202.179 283.745 211.961 279.994 215.36H312.314C308.565 211.961 305.061 202.18 302.272 192.061C307.618 197.173 314.866 200.321 322.857 200.321C339.316 200.321 352.66 186.977 352.66 170.513C352.665 131.186 296.78 109.66 296.78 109.66H296.777Z" fill="#1C1C1E"/>
<path d="M1026.1 817.008C1024.16 827.651 1015.46 836.35 1003.87 837.322C993.223 839.265 982.58 831.515 979.688 820.872C976.795 813.144 917.797 635.173 1075.43 430.158C1019.35 428.215 911.989 454.336 824.948 629.392C820.112 641.006 807.548 645.842 795.934 641.956C784.319 637.12 777.563 625.506 779.484 613.913C782.377 604.242 828.812 384.693 671.155 310.241C513.524 384.721 559.935 604.242 562.825 613.913C564.768 625.528 557.99 637.12 546.375 641.956C534.761 645.82 522.197 640.984 517.362 629.392C430.32 454.336 323.936 428.241 266.881 430.158C424.512 635.2 365.539 813.146 362.621 820.872C359.729 831.515 349.086 839.243 338.443 837.322C326.829 836.35 318.129 827.651 316.208 817.008C292.03 661.295 167.276 635.199 78.2896 639.062C173.057 721.268 173.057 858.611 169.194 917.583H1173.07C1169.21 858.583 1169.21 721.268 1263.98 639.062C1175.03 635.198 1050.28 661.297 1026.1 817.008ZM764.977 765.759L688.579 842.156C683.744 846.992 677.937 849.885 671.18 849.885C664.401 849.885 658.616 846.992 653.781 842.156L577.383 765.759C569.655 758.031 567.712 746.416 572.547 737.717L649.918 583.949C657.646 567.499 684.739 567.499 692.467 583.949L769.837 737.717C774.651 746.416 772.705 758.009 764.977 765.759Z" fill="#1C1C1E"/>
<path d="M132.419 965.945H1209.8V1095.53H132.419V965.945Z" fill="#1C1C1E"/>
</g>
<defs>
<clipPath id="clip0_63_6978">
<rect width="750" height="1050" fill="white"/>
</clipPath>
</defs>
</svg>
